<?xml version="1.0" encoding="UTF-8"?>
<svg width="20px" height="20px" viewBox="0 0 20 20" version="1.1" xmlns="http://www.w3.org/2000/svg" xmlns:xlink="http://www.w3.org/1999/xlink">
    <!-- Generator: Sketch 45.2 (43514) - http://www.bohemiancoding.com/sketch -->
    <title>添加人员</title>
    <desc>Created with Sketch.</desc>
    <defs></defs>
    <g id="Page-1" stroke="none" stroke-width="1" fill="none" fill-rule="evenodd">
        <g id="Artboard-2" transform="translate(-534.000000, -1049.000000)" fill-rule="nonzero" fill="#CCCCCC">
            <g id="添加人员" transform="translate(534.000000, 1049.000000)">
                <path d="M14.9824654,9.88533799 C12.3107524,9.88533799 10.0397964,12.156294 10.0397964,14.828007 C10.0397964,17.49972 12.3107524,19.770676 14.9824654,19.770676 C17.6541784,19.770676 19.9251344,17.49972 19.9251344,14.828007 C19.9251344,12.156294 17.787764,9.88533799 14.9824654,9.88533799 Z M17.9213497,15.7631065 L15.7839793,15.7631065 L15.7839793,17.9004769 C15.7839793,18.3012339 15.3832223,18.7019908 14.9824654,18.7019908 C14.5817084,18.7019908 14.1809515,18.3012339 14.1809515,17.9004769 L14.1809515,15.7631065 L12.1771668,15.7631065 C11.7764098,15.7631065 11.3756529,15.3623496 11.3756529,14.9615926 C11.3756529,14.5608357 11.7764098,14.1600787 12.1771668,14.1600787 L14.3145372,14.1600787 L14.3145372,12.156294 C14.3145372,11.7555371 14.7152941,11.3547801 15.116051,11.3547801 C15.516808,11.3547801 15.9175649,11.7555371 15.9175649,12.156294 L15.9175649,14.2936644 L18.0549353,14.2936644 C18.4556923,14.2936644 18.8564492,14.6944213 18.8564492,15.0951783 C18.8564492,15.4959352 18.3221066,15.7631065 17.9213497,15.7631065 L17.9213497,15.7631065 Z" id="Shape"></path>
                <path d="M10.173382,11.2211945 L10.173382,10.0189236 C10.173382,10.0189236 12.3107524,8.14872456 12.3107524,5.20984029 C12.3107524,3.60681251 12.3107524,5.68434189e-14 8.16959732,5.68434189e-14 C4.02844221,5.68434189e-14 4.02844221,3.47322686 4.02844221,4.80908335 C4.02844221,8.28231021 6.03222694,10.0189236 6.03222694,10.0189236 C6.03222694,10.0189236 6.03222694,11.0876088 5.63147,11.4883658 C5.23071305,11.8891227 -0.246298539,13.3585649 0.0208727576,16.1638635 C0.288044055,18.9691621 5.0971274,18.8355764 5.0971274,18.8355764 L10.4405533,18.8355764 C10.4405533,18.8355764 8.97111121,17.2325487 8.83752556,15.0951783 C8.83752556,13.0913936 10.173382,11.2211945 10.173382,11.2211945 L10.173382,11.2211945 Z" id="Shape"></path>
            </g>
        </g>
    </g>
</svg>