<?xml version="1.0" encoding="UTF-8"?>
<svg width="20px" height="20px" viewBox="0 0 20 20" version="1.1" xmlns="http://www.w3.org/2000/svg" xmlns:xlink="http://www.w3.org/1999/xlink">
    <!-- Generator: Sketch 45.2 (43514) - http://www.bohemiancoding.com/sketch -->
    <title>添加 (13)</title>
    <desc>Created with Sketch.</desc>
    <defs></defs>
    <g id="Page-1" stroke="none" stroke-width="1" fill="none" fill-rule="evenodd">
        <g id="Artboard-2" transform="translate(-572.000000, -1049.000000)" fill-rule="nonzero" fill="#CCCCCC">
            <g id="添加-(13)" transform="translate(572.000000, 1049.000000)">
                <path d="M18.8485271,11.1300603 L1.15147293,11.1300603 C0.529165745,11.1300603 0.0214126173,10.6254032 0.0214126173,10 C0.0214126173,9.37459676 0.526069689,8.86993969 1.15147293,8.86993969 L18.8485271,8.86993969 C19.4708343,8.86993969 19.9785874,9.37459676 19.9785874,10 C19.9785874,10.6254032 19.4708343,11.1300603 18.8485271,11.1300603 Z" id="Shape"></path>
                <path d="M10,19.9785874 C9.37769281,19.9785874 8.86993969,19.4739303 8.86993969,18.8516231 L8.86993969,1.15147293 C8.86993969,0.529165745 9.37459676,0.0214126173 10,0.0214126173 C10.6223072,0.0214126173 11.1300603,0.526069689 11.1300603,1.15147293 L11.1300603,18.8516231 C11.1269643,19.4739303 10.6223072,19.9785874 10,19.9785874 Z" id="Shape"></path>
            </g>
        </g>
    </g>
</svg>