<?xml version="1.0" encoding="UTF-8"?>
<svg width="20px" height="20px" viewBox="0 0 20 20" version="1.1" xmlns="http://www.w3.org/2000/svg" xmlns:xlink="http://www.w3.org/1999/xlink">
    <!-- Generator: Sketch 45.2 (43514) - http://www.bohemiancoding.com/sketch -->
    <title>添加 (14)</title>
    <desc>Created with Sketch.</desc>
    <defs></defs>
    <g id="Page-1" stroke="none" stroke-width="1" fill="none" fill-rule="evenodd">
        <g id="Artboard-2" transform="translate(-610.000000, -1051.000000)" fill-rule="nonzero" fill="#CCCCCC">
            <g id="添加-(14)" transform="translate(610.000000, 1051.000000)">
                <path d="M10,20 C4.48632812,20 0,15.5136719 0,10 C0,4.48632813 4.48632812,0 10,0 C15.5136719,0 20,4.48632812 20,10 C20,15.5136719 15.5136719,20 10,20 Z M10,1.66601562 C5.40429687,1.66601563 1.66601562,5.40429688 1.66601562,10 C1.66601562,14.5957031 5.40429687,18.3339844 10,18.3339844 C14.5957031,18.3339844 18.3339844,14.5957031 18.3339844,10 C18.3339844,5.40429688 14.5957031,1.66601563 10,1.66601562 Z" id="Shape"></path>
                <path d="M13.3339844,10.8339844 L6.66601562,10.8339844 C6.20507812,10.8339844 5.83203125,10.4609375 5.83203125,10 C5.83203125,9.5390625 6.20507813,9.16601562 6.66601562,9.16601562 L13.3320312,9.16601562 C13.7929688,9.16601562 14.1660156,9.5390625 14.1660156,10 C14.1660156,10.4609375 13.7929688,10.8339844 13.3339844,10.8339844 Z" id="Shape"></path>
                <path d="M10,14.1660156 C9.5390625,14.1660156 9.16601562,13.7929688 9.16601562,13.3320312 L9.16601562,6.66601562 C9.16601562,6.20507812 9.5390625,5.83203125 10,5.83203125 C10.4609375,5.83203125 10.8339844,6.20507813 10.8339844,6.66601562 L10.8339844,13.3320312 C10.8339844,13.7929688 10.4609375,14.1660156 10,14.1660156 L10,14.1660156 Z" id="Shape"></path>
            </g>
        </g>
    </g>
</svg>