<?xml version="1.0" encoding="UTF-8"?>
<svg width="92px" height="103px" viewBox="0 0 92 103" version="1.1" xmlns="http://www.w3.org/2000/svg" xmlns:xlink="http://www.w3.org/1999/xlink">
    <!-- Generator: Sketch 45.2 (43514) - http://www.bohemiancoding.com/sketch -->
    <title>Group 11</title>
    <desc>Created with Sketch.</desc>
    <defs></defs>
    <g id="Page-1" stroke="none" stroke-width="1" fill="none" fill-rule="evenodd">
        <g id="Artboard-2" transform="translate(-2411.000000, -1343.000000)" fill-rule="nonzero">
            <g id="Group-11" transform="translate(2411.000000, 1343.000000)">
                <g id="Group-10" transform="translate(0.428477, 0.005582)">
                    <path d="M50.8315719,62.9724081 L5.38548748,62.9724081 C2.8227939,62.9724081 0.745320286,60.8949345 0.745320286,58.3322409 C0.745320286,55.7695473 2.8227939,53.6920737 5.38548748,53.6920737 L50.8315719,53.6920737 C53.3942655,53.6920737 55.4717391,55.7695473 55.4717391,58.3322409 C55.4717391,60.8949345 53.3942655,62.9724081 50.8315719,62.9724081 Z" id="Shape" fill="#F1F1F1"></path>
                    <path d="M53.563496,39.7510535 C53.5678515,38.0872383 52.253832,36.718792 50.5912095,36.6556546 L20.0769075,36.6556546 C18.9399552,36.6061399 17.8675228,37.1844922 17.2842701,38.1616966 C16.7010174,39.1389009 16.7010174,40.3573436 17.2842701,41.334548 C17.8675228,42.3117523 18.9399552,42.8901046 20.0769075,42.84059 L32.5054032,42.84059 C35.5278598,42.84059 37.978045,45.2907752 37.978045,48.3132318 C37.978045,51.3356885 35.5278598,53.7858737 32.5054032,53.7858737 L22.1580942,53.7858737 L22.1580942,59.9708091 L50.5912095,59.9708091 L50.5912095,53.8210487 L50.1163471,53.8210487 C47.0938905,53.8210487 44.6437052,51.3708635 44.6437052,48.3484068 C44.6437052,45.3259501 47.0938905,42.8757649 50.1163471,42.8757649 L50.5912095,42.8757649 C52.2558054,42.7914925 53.5625066,41.417781 53.563496,39.7510535 Z M83.6928111,55.7210422 L77.8654881,55.7210422 L77.8654881,64.9427516 L83.6928111,64.9427516 C86.2525466,64.9395216 88.326817,62.8652513 88.330047,60.3055157 C88.3254157,59.0824358 87.8334833,57.9116438 86.963145,57.0523084 C86.0928066,56.1929731 84.915851,55.7159755 83.6928111,55.7269047 L83.6928111,55.7210422 Z" id="Shape" fill="#F1F1F1"></path>
                    <path d="M47.9765354,5.09782784 C46.598791,5.0913595 45.4865413,3.97037664 45.4908485,2.59262375 C45.4951556,1.21487086 46.6143924,0.100864153 47.9921504,0.103010152 C49.3699083,0.105156151 50.4856693,1.2226441 50.4856845,2.60040372 C50.4761001,3.97570344 49.3635601,5.08824349 47.9882604,5.09782784 L47.9765354,5.09782784 Z M47.9765354,1.16995418 C47.397445,1.1675808 46.8740546,1.51458984 46.6507998,2.04891994 C46.427545,2.58325003 46.5484769,3.19947098 46.9571174,3.60979316 C47.3657579,4.02011534 47.981477,4.14357689 48.5167195,3.92251839 C49.0519619,3.70145988 49.4011175,3.17949901 49.4011224,2.60040372 C49.3917037,1.81659796 48.7602959,1.18259174 47.9765354,1.16995418 L47.9765354,1.16995418 Z" id="Shape" fill="#E9E9E9"></path>
                    <path d="M71.3865665,1.09244281 C70.5960224,1.10844187 69.9644788,1.75564357 69.967842,2.5463424 C69.967842,3.33473896 70.6069637,3.97386065 71.3953602,3.97386065 C72.1837568,3.97386065 72.8228785,3.33473896 72.8228785,2.5463424 C72.8134598,1.7625366 72.1820519,1.12853037 71.3982914,1.11589285 L71.3865665,1.09244281 Z M4.55301277,42.0315652 C3.49966958,42.0492353 2.47901871,41.6657053 1.69797627,40.9587281 C0.785600994,40.1952459 0.202015632,39.1099451 0.0682017759,37.9278167 C-0.0589867334,36.7452058 0.305631251,35.5623172 1.07655148,34.6565427 C1.84439814,33.7533762 2.92897899,33.1785693 4.10746289,33.0502183 C6.58759332,32.8284312 8.77793023,34.6591802 8.99971736,37.1393106 C9.22150449,39.619441 7.39075557,41.809778 4.91062516,42.0315652 L4.55301277,42.0315652 Z M4.55301277,34.1816804 L4.25402535,34.1816804 C3.3651109,34.2248728 2.53903348,34.6528922 1.9911011,35.35418 C1.42371805,36.040312 1.15360839,36.9244992 1.24070141,37.8105666 C1.28479705,38.6976061 1.71280611,39.5215236 2.41320104,40.0676284 C3.4478514,40.9382371 4.90572921,41.0981029 6.10445995,40.4723988 C7.3031907,39.8466948 8.00559745,38.5592207 7.8829116,37.2125919 C7.7358658,35.4871833 6.28460697,34.1662312 4.55301277,34.1816804 Z" id="Shape" fill="#E9E9E9"></path>
                    <path d="M88.421909,70.2360431 L83.7846732,70.2360431 C83.4884174,70.2360431 83.2482546,69.9958803 83.2482546,69.6996245 C83.2482546,69.4033687 83.4884174,69.1632059 83.7846732,69.1632059 L88.421909,69.1632059 C88.7181648,69.1632059 88.9583276,69.4033687 88.9583276,69.6996245 C88.9583276,69.9958803 88.7181648,70.2360431 88.421909,70.2360431 L88.421909,70.2360431 Z" id="Shape" fill="#F1F1F1"></path>
                    <path d="M86.1003598,72.5517298 C85.9588701,72.5517298 85.8231756,72.4955233 85.7231273,72.395475 C85.623079,72.2954267 85.5668725,72.1597321 85.5668725,72.0182424 L85.5668725,67.3810066 C85.5668725,67.0847508 85.8070353,66.844588 86.1032911,66.844588 C86.3995469,66.844588 86.6397097,67.0847508 86.6397097,67.3810066 L86.6397097,71.9947925 C86.6397097,72.2894294 86.4008593,72.5282798 86.1062224,72.5282798 L86.1003598,72.5517298 Z M87.5894343,42.0315652 C87.5894343,44.2300019 86.1003598,45.9594389 84.2595355,45.9594389 C86.1062224,45.9594389 87.5894343,47.7181883 87.5894343,49.8873126 C87.5894343,47.6888759 89.0785088,45.9594389 90.9193332,45.9594389 C89.0726463,45.9594389 87.5894344,44.2006895 87.5894343,42.0315652 Z" id="Shape" fill="#E9E9E9"></path>
                    <path d="M77.6525002,82.8990388 L41.3695001,82.8990388 C40.7688578,82.9006009 40.1923661,82.662688 39.7676463,82.2379683 C39.3429266,81.8132486 39.1050137,81.2367569 39.1065759,80.6361145 L39.1065759,35.9697423 L72.1183021,35.9697423 C74.1715712,35.963496 76.1426296,36.7759879 77.5950669,38.2273248 C79.0475042,39.6786618 79.8614897,41.6491039 79.8567995,43.7023771 L79.8567995,80.700602 C79.8680649,81.2870447 79.6400639,81.852795 79.2253098,82.2675491 C78.8105557,82.6823032 78.2448054,82.9103042 77.6583627,82.8990388 L77.6525002,82.8990388 Z" id="Shape" fill="#FFFFFF"></path>
                    <path d="M72.1769271,35.9697423 L66.8244664,35.9697423 C68.876721,35.9650586 70.8462694,36.7782404 72.2974363,38.2294073 C73.7486032,39.6805742 74.561785,41.6501226 74.5571012,43.7023771 L74.5571012,80.700602 C74.5586634,81.3012443 74.3207505,81.877736 73.8960308,82.3024557 C73.4713111,82.7271755 72.8948194,82.9650883 72.2941771,82.9635262 L77.6466377,82.9635262 C78.2472801,82.9650884 78.8237718,82.7271755 79.2484915,82.3024558 C79.6732112,81.8777361 79.9111241,81.3012443 79.909562,80.700602 L79.909562,43.7023771 C79.9142457,41.6501226 79.1010639,39.6805741 77.649897,38.2294072 C76.1987301,36.7782404 74.2291816,35.9650586 72.1769271,35.9697423 Z" id="Shape" fill="#F1F1F1"></path>
                    <path d="M77.6525002,83.7197884 L41.3695001,83.7197884 C40.5466324,83.7260942 39.7556365,83.4019981 39.173764,82.8201256 C38.5918916,82.2382532 38.2677954,81.4472573 38.2741012,80.6243895 L38.2741012,35.0610551 L72.1769271,35.0610551 C74.4485354,35.0610551 76.6271045,35.9634479 78.2333742,37.5697176 C79.8396438,39.1759872 80.7420367,41.3545564 80.7420367,43.6261647 L80.7420367,80.6243895 C80.7483424,81.4472573 80.4242463,82.2382532 79.8423738,82.8201256 C79.2605014,83.4019981 78.4695055,83.7260942 77.6466377,83.7197884 L77.6525002,83.7197884 Z M40.0035381,36.8198045 L40.0035381,80.6595645 C39.9987622,81.0232832 40.1411415,81.3735028 40.3983516,81.630713 C40.6555618,81.8879232 41.0057814,82.0303025 41.3695001,82.0255266 L77.6525002,82.0255266 C78.016219,82.0303025 78.3664386,81.8879232 78.6236488,81.630713 C78.8808589,81.3735029 79.0232382,81.0232832 79.0184623,80.6595645 L79.0184623,43.6378897 C79.0152298,39.8283762 75.9278156,36.740962 72.1183021,36.7377296 L40.0035381,36.7377296 L40.0035381,36.8198045 Z" id="Shape" fill="#D7D7D7"></path>
                    <path d="M15.6741715,82.8990388 L51.9571715,82.8990388 C52.5578139,82.9006009 53.1343056,82.662688 53.5590253,82.2379683 C53.983745,81.8132486 54.2216578,81.2367569 54.2200957,80.6361145 L54.2200957,35.9697423 L21.1731946,35.9697423 C19.1168841,35.9587989 17.1412916,36.7692163 15.6850402,38.2210649 C14.2287887,39.6729135 13.4123929,41.6460429 13.4171097,43.7023771 L13.4171097,80.700602 C13.4427377,81.9291854 14.451223,82.9089315 15.680034,82.8990388 L15.6741715,82.8990388 Z" id="Shape" fill="#F1F1F1"></path>
                    <path d="M17.4563708,80.6361145 L17.4563708,43.6378897 C17.4516871,41.5856351 18.2648689,39.6160867 19.7160358,38.1649198 C21.1672027,36.7137529 23.1367512,35.9005711 25.1890057,35.9052549 L21.1731946,35.9052549 C19.1168841,35.8943115 17.1412916,36.7047289 15.6850402,38.1565775 C14.2287887,39.608426 13.4123929,41.5815555 13.4171097,43.6378897 L13.4171097,80.6361145 C13.4155476,81.2367569 13.6534604,81.8132486 14.0781802,82.2379683 C14.5028999,82.662688 15.0793916,82.9006009 15.680034,82.8990388 L19.7251576,82.8990388 C19.1245152,82.9006009 18.5480235,82.662688 18.1233038,82.2379683 C17.698584,81.8132486 17.4606712,81.2367569 17.4622333,80.6361145 L17.4563708,80.6361145 Z" id="Shape" fill="#FFFFFF"></path>
                    <path d="M51.9571715,83.7197884 L15.6741715,83.7197884 C14.8513037,83.7260942 14.0603078,83.4019981 13.4784354,82.8201256 C12.8965629,82.2382532 12.5724668,81.4472573 12.5787725,80.6243895 L12.5787725,43.6378897 C12.5949025,38.9008691 16.4361508,35.0674814 21.1731946,35.0610551 L55.0525705,35.0610551 L55.0525705,80.6243895 C55.0429615,82.3299351 53.6627171,83.7101795 51.9571715,83.7197884 L51.9571715,83.7197884 Z M21.1731946,36.8198045 C17.3613809,36.810075 14.2625154,39.890573 14.2495844,43.7023771 L14.2495844,80.700602 C14.2448085,81.0643207 14.3871878,81.4145403 14.644398,81.6717505 C14.9016082,81.9289606 15.2518278,82.0713399 15.6155465,82.066564 L51.8985466,82.066564 C52.2622653,82.0713399 52.6124849,81.9289606 52.869695,81.6717504 C53.1269052,81.4145403 53.2692845,81.0643207 53.2645086,80.700602 L53.2645086,36.8198045 L21.1731946,36.8198045 Z" id="Shape" fill="#D7D7D7"></path>
                    <path d="M26.8598176,82.8990388 C26.2591753,82.9006009 25.6826836,82.662688 25.2579638,82.2379683 C24.8332441,81.8132486 24.5953312,81.2367569 24.5968934,80.6361145 L24.5968934,18.8336607 C24.5858942,16.9536291 25.3278703,15.1474141 26.6572761,13.8180083 C27.9866819,12.4886025 29.7928969,11.7466264 31.6729285,11.7576256 L60.6395311,11.7576256 C62.5205756,11.7450528 64.3283062,12.486334 65.6589859,13.8159122 C66.9896656,15.1454903 67.7324436,16.9526064 67.7214286,18.8336607 L67.7214286,80.6361145 C67.7229907,81.2367569 67.4850779,81.8132486 67.0603582,82.2379683 C66.6356385,82.662688 66.0591468,82.9006009 65.4585044,82.8990388 L26.8598176,82.8990388 Z" id="Shape" fill="#FFFFFF"></path>
                    <path d="M60.6453936,11.7576256 L55.2284454,11.7576256 C57.108477,11.7466264 58.914692,12.4886025 60.2440978,13.8180083 C61.5735036,15.1474141 62.3154797,16.9536291 62.3044805,18.8336607 L62.3044805,82.8990388 L65.4585044,82.8990388 C66.0591468,82.9006009 66.6356385,82.662688 67.0603582,82.2379683 C67.4850779,81.8132486 67.7229907,81.2367569 67.7214286,80.6361145 L67.7214286,18.8336607 C67.7117613,14.9296858 64.5493685,11.767293 60.6453936,11.7576256 L60.6453936,11.7576256 Z" id="Shape" fill="#F1F1F1"></path>
                    <path d="M36.1342894,11.7576256 L31.6729285,11.7576256 C29.7928969,11.7466264 27.9866819,12.4886025 26.6572761,13.8180083 C25.3278703,15.1474141 24.5858942,16.9536291 24.5968934,18.8336607 L24.5968934,80.6361145 C24.5953312,81.2367569 24.8332441,81.8132486 25.2579638,82.2379683 C25.6826836,82.662688 26.2591753,82.9006009 26.8598176,82.8990388 L29.1227419,82.8990388 L29.1227419,18.8336607 C29.1118165,16.9607632 29.8481756,15.1608234 31.1686796,13.8326164 C32.4891836,12.5044095 34.2848101,11.7575937 36.1577395,11.7576256 L36.1342894,11.7576256 Z" id="Shape" fill="#FFFFFF"></path>
                    <path d="M24.5968934,48.0406257 C24.3746559,48.0454762 24.1600827,47.9593278 24.0028996,47.8021447 C23.8457165,47.6449617 23.7595681,47.4303885 23.7644187,47.208151 L23.7644187,42.805415 C23.7644187,42.3456519 24.1371303,41.9729403 24.5968934,41.9729403 C25.0566565,41.9729403 25.4293681,42.3456519 25.4293681,42.805415 L25.4293681,47.208151 C25.4452055,47.43342 25.362598,47.6544906 25.2029155,47.8141731 C25.043233,47.9738555 24.8221625,48.0564631 24.5968934,48.0406257 L24.5968934,48.0406257 Z" id="Shape" fill="#D7D7D7"></path>
                    <path d="M57.790357,82.9576637 L50.5912095,82.9576637 C50.3061969,82.9592341 50.0324032,82.8467077 49.8308658,82.6451703 C49.6293284,82.4436328 49.516802,82.1698392 49.5183724,81.8848266 L49.5183724,71.7133925 C49.5168021,71.4283799 49.6293285,71.1545863 49.8308658,70.9530489 C50.0324032,70.7515115 50.3061969,70.6389851 50.5912095,70.6405555 L57.790357,70.6405555 C58.0753696,70.6389851 58.3491632,70.7515115 58.5507007,70.9530489 C58.7522381,71.1545863 58.8647645,71.4283799 58.8631941,71.7133925 L58.8631941,81.8848266 C58.8647645,82.1698392 58.7522381,82.4436329 58.5507007,82.6451703 C58.3491633,82.8467077 58.0753696,82.9592341 57.790357,82.9576637 L57.790357,82.9576637 Z M41.7916,82.9576637 L34.5924524,82.9576637 C34.3074399,82.9592341 34.0336462,82.8467077 33.8321088,82.6451703 C33.6305714,82.4436328 33.518045,82.1698392 33.5196154,81.8848266 L33.5196154,71.7133925 C33.5180451,71.4283799 33.6305714,71.1545863 33.8321088,70.9530489 C34.0336462,70.7515115 34.3074399,70.6389851 34.5924524,70.6405555 L41.7857375,70.6405555 C42.071762,70.6374077 42.3470729,70.7492373 42.5498854,70.9509475 C42.7526979,71.1526578 42.8660261,71.4273551 42.8644371,71.7133925 L42.8644371,81.8848266 C42.8660075,82.1698392 42.7534811,82.4436329 42.5519437,82.6451703 C42.3504063,82.8467077 42.0766126,82.9592341 41.7916,82.9576637 L41.7916,82.9576637 Z" id="Shape" fill="#E9E9E9"></path>
                    <path d="M65.4585044,83.7197884 L26.8598176,83.7197884 C26.0369499,83.7260942 25.245954,83.4019981 24.6640815,82.8201256 C24.0822091,82.2382532 23.7581129,81.4472573 23.7644187,80.6243895 L23.7644187,51.6695119 C23.7644187,51.2097488 24.1371303,50.8370372 24.5968934,50.8370372 C25.0566565,50.8370372 25.4293681,51.2097488 25.4293681,51.6695119 L25.4293681,80.6361145 C25.4245922,80.9998333 25.5669715,81.3500529 25.8241817,81.607263 C26.0813918,81.8644732 26.4316114,82.0068525 26.7953302,82.0020765 L65.4878169,82.0020765 C65.8515356,82.0068525 66.2017552,81.8644732 66.4589654,81.607263 C66.7161756,81.3500529 66.8585549,80.9998333 66.853779,80.6361145 L66.853779,18.8336607 C66.8553365,17.1928368 66.2042114,15.6187692 65.0439732,14.458531 C63.883735,13.2982928 62.3096674,12.6471677 60.6688435,12.6487253 L31.6729285,12.6487253 C30.0321046,12.6471677 28.458037,13.2982928 27.2977988,14.458531 C26.1375606,15.6187692 25.4864355,17.1928368 25.4879931,18.8336607 L25.4879931,36.6791046 C25.4879931,37.1388677 25.1152814,37.5115793 24.6555184,37.5115793 C24.1957553,37.5115793 23.8230436,37.1388677 23.8230436,36.6791046 L23.8230436,18.8336607 C23.8422809,14.4761893 27.368235,10.9476195 31.725691,10.9251509 L60.6922936,10.9251509 C65.0520391,10.9444137 68.5815405,14.4739152 68.6008033,18.8336607 L68.6008033,80.6361145 C68.5657444,82.3537591 67.1647794,83.7286839 65.4467794,83.7315135 L65.4585044,83.7197884 Z" id="Shape" fill="#D7D7D7"></path>
                    <path d="M42.0260999,32.7160559 L35.3018147,32.7160559 C34.7504519,32.6976695 34.3086548,32.2533039 34.293465,31.7018437 L34.293465,24.9658335 C34.3086549,24.4143734 34.7504519,23.9700079 35.3018147,23.9516215 L41.967475,23.9516215 C42.521128,23.9669669 42.9663416,24.4121805 42.9816871,24.9658335 L42.9816871,31.6256313 C43.0150417,31.9003241 42.9298826,32.1762276 42.7475092,32.3843348 C42.5651357,32.5924419 42.3027943,32.7130728 42.0260999,32.7160559 L42.0260999,32.7160559 Z M56.9344323,32.7160559 L50.2922221,32.7160559 C49.7408593,32.6976695 49.2990622,32.2533039 49.2838724,31.7018437 L49.2838724,24.9658335 C49.2990623,24.4143734 49.7408593,23.9700079 50.2922221,23.9516215 L56.9344323,23.9516215 C57.4880854,23.9669668 57.9332991,24.4121805 57.9486445,24.9658335 L57.9486445,31.6256313 C57.9794473,31.9097698 57.8853049,32.1932764 57.6906571,32.4025508 C57.4960094,32.6118252 57.2200546,32.7262267 56.9344323,32.7160559 L56.9344323,32.7160559 Z M42.0260999,48.0992506 L35.3018147,48.0992506 C34.7526423,48.0810312 34.3116845,47.6400734 34.293465,47.090901 L34.293465,40.3666158 C34.3086548,39.8151556 34.7504519,39.37079 35.3018147,39.3524036 L41.967475,39.3524036 C42.521128,39.3677491 42.9663417,39.8129627 42.9816871,40.3666158 L42.9816871,47.0322761 C43.00962,47.303126 42.9228052,47.5732908 42.7423232,47.7771686 C42.5618412,47.9810465 42.3042007,48.0999885 42.0319624,48.1051131 L42.0260999,48.0992506 Z" id="Shape" fill="#E9E9E9"></path>
                    <path d="M56.9344323,48.0992506 L50.2922221,48.0992506 C49.7430497,48.0810312 49.3020919,47.6400734 49.2838724,47.090901 L49.2838724,40.3666158 C49.2990622,39.8151556 49.7408593,39.37079 50.2922221,39.3524036 L56.9344323,39.3524036 C57.4880854,39.367749 57.9332991,39.8129627 57.9486445,40.3666158 L57.9486445,47.0322761 C57.9722408,47.3125692 57.8748657,47.5895768 57.6810722,47.793452 C57.4872786,47.9973273 57.2155611,48.1086137 56.9344323,48.0992506 Z" id="Shape" fill="#FAFAFA"></path>
                    <path d="M42.0260999,63.5058954 L35.3018147,63.5058954 C34.7526423,63.4876759 34.3116845,63.0467181 34.293465,62.4975457 L34.293465,55.8318855 C34.3086548,55.2804254 34.7504519,54.8360597 35.3018147,54.8176733 L41.967475,54.8176733 C42.521128,54.8330188 42.9663417,55.2782325 42.9816871,55.8318855 L42.9816871,62.4975457 C42.9961469,62.7589793 42.9026996,63.0148945 42.7231793,63.2054963 C42.543659,63.3960982 42.2937928,63.5046886 42.0319624,63.5058954 L42.0260999,63.5058954 Z M56.9578823,63.5058954 L50.2922221,63.5058954 C49.7430497,63.4876759 49.3020919,63.0467181 49.2838724,62.4975457 L49.2838724,55.8318855 C49.2990622,55.2804254 49.7408593,54.8360597 50.2922221,54.8176733 L56.9344323,54.8176733 C57.4880854,54.8330187 57.9332991,55.2782324 57.9486445,55.8318855 L57.9486445,62.4975457 C57.9605248,62.7694769 57.8572866,63.0338296 57.6642617,63.2257387 C57.4712369,63.4176478 57.2062901,63.5193519 56.9344323,63.5058954 L56.9578823,63.5058954 Z" id="Shape" fill="#E9E9E9"></path>
                    <path d="M82.4714735,84.8043505 L11.6876728,84.8043505 C11.004153,84.8429087 10.3553905,84.5001669 10.0020117,83.9138143 C9.64863277,83.3274616 9.64863277,82.5937282 10.0020117,82.0073756 C10.3553905,81.421023 11.004153,81.0782812 11.6876728,81.1168393 L82.4714735,81.1168393 C83.1549933,81.0782812 83.8037558,81.421023 84.1571347,82.0073756 C84.5105136,82.5937282 84.5105136,83.3274616 84.1571347,83.9138143 C83.8037558,84.5001669 83.1549933,84.8429087 82.4714735,84.8043505 L82.4714735,84.8043505 Z" id="Shape" fill="#D7D7D7"></path>
                </g>
                <path d="M16.5715548,97.0263446 C16.5715548,100.276303 29.7617932,102.856109 45.9126485,102.856109 C62.0635038,102.856109 75.2518756,100.276303 75.2518757,97.0263446 C75.2518758,93.7763861 62.0616373,91.1947134 45.9107818,91.1947136 C29.7599264,91.1947137 16.5696881,93.871589 16.5696881,97.0263446 L16.5715548,97.0263446 Z" id="Shape" fill="#F1F1F1"></path>
            </g>
        </g>
    </g>
</svg>