<?xml version="1.0" encoding="UTF-8"?>
<svg width="105px" height="87px" viewBox="0 0 105 87" version="1.1" xmlns="http://www.w3.org/2000/svg" xmlns:xlink="http://www.w3.org/1999/xlink">
    <!-- Generator: Sketch 45.2 (43514) - http://www.bohemiancoding.com/sketch -->
    <title>开发中</title>
    <desc>Created with Sketch.</desc>
    <defs></defs>
    <g id="Page-1" stroke="none" stroke-width="1" fill="none" fill-rule="evenodd">
        <g id="Artboard-2" transform="translate(-2113.000000, -1343.000000)" fill-rule="nonzero">
            <g id="开发中" transform="translate(2165.500000, 1386.500000) scale(-1, 1) translate(-2165.500000, -1386.500000) translate(2113.000000, 1343.000000)">
                <path d="M8.97817707,51.5587174 L6.11217918,51.5587174 C5.87822018,51.5587174 5.67350605,51.3540033 5.67350605,51.1200443 C5.67350605,50.8860853 5.87822018,50.6813711 6.11217918,50.6813711 L8.97817707,50.6813711 C9.21213607,50.6813711 9.41685021,50.8860853 9.41685029,51.1200443 C9.41685038,51.3540033 9.21213616,51.5587174 8.97817707,51.5587174 L8.97817707,51.5587174 Z" id="Shape" fill="#E0E0E0"></path>
                <path d="M2.7782633,34.2165056 C1.22828481,34.2165056 0,32.9589759 0,31.4382424 C0,29.9175088 1.25752967,28.6599791 2.7782633,28.6599791 C4.32824178,28.6599791 5.58577146,29.9175087 5.58577146,31.4382424 C5.58577146,32.958976 4.32824178,34.2165057 2.7782633,34.2165056 Z M2.7782633,29.8005293 C1.87167216,29.8005293 1.16979508,30.5316512 1.16979508,31.4089974 C1.16979508,32.2863436 1.90091703,33.0174656 2.7782633,33.0174656 C3.68485443,33.0174656 4.41597638,32.2863437 4.41597638,31.4089974 C4.41597638,30.5316511 3.68485443,29.8005292 2.7782633,29.8005293 Z" id="Shape" fill="#CCCCCC"></path>
                <path d="M15.0026217,12.3705828 L10.7036248,12.3705828 C10.2941966,12.3705828 9.97250288,12.0488891 9.97250288,11.6394609 L9.97250288,11.376257 C9.97250288,10.9668287 10.2941966,10.645135 10.7036248,10.6451351 L14.9733768,10.6451351 C15.3828051,10.6451351 15.7044987,10.9668288 15.7044987,11.376257 L15.7044987,11.6394609 C15.7337436,12.0488892 15.3828051,12.3705829 15.0026217,12.3705828 Z" id="Shape" fill="#F2F2F2"></path>
                <path d="M12.9847252,14.3884793 L12.6922765,14.3884793 C12.2828482,14.3884793 11.9611545,14.0667856 11.9611545,13.6573574 L11.9611545,9.35836048 C11.9611545,8.94893221 12.2828482,8.62723853 12.6922765,8.62723862 L12.9847252,8.62723862 C13.3941534,8.62723862 13.7158471,8.94893229 13.7158471,9.35836048 L13.7158471,13.6281124 C13.7158471,14.0667856 13.3941534,14.3884793 12.9847252,14.3884793 Z" id="Shape" fill="#F2F2F2"></path>
                <path d="M85.9214474,12.5168072 C84.7808972,12.5168072 83.874306,11.610216 83.874306,10.4696658 C83.874306,9.32911561 84.7808972,8.42252448 85.9214474,8.42252448 C87.0619976,8.42252448 87.9685887,9.32911561 87.9685888,10.4696658 C87.9685889,11.610216 87.0619977,12.5168072 85.9214474,12.5168072 Z M85.9214474,9.59231948 C85.4242845,9.59231948 85.0441011,10.0017477 85.0441011,10.4696658 C85.0441011,10.9375839 85.4535294,11.3470121 85.9214474,11.3470121 C86.3893654,11.3470121 86.7987936,10.9375838 86.7987937,10.4696658 C86.7987938,10.0017478 86.4186103,9.59231956 85.9214474,9.59231948 Z" id="Shape" fill="#CCCCCC"></path>
                <path d="M103.790067,35.2108314 L97.5316634,35.2108314 C97.1222351,35.2108314 96.8005415,34.8891377 96.8005415,34.4797095 L96.8005415,33.9533017 C96.8005415,33.5438734 97.1222351,33.2221798 97.5316634,33.2221798 L103.790067,33.2221798 C104.199495,33.2221798 104.521189,33.5438734 104.521189,33.9533017 L104.521189,34.4797095 C104.521189,34.8598929 104.199495,35.2108315 103.790067,35.2108314 Z" id="Shape" fill="#F2F2F2"></path>
                <path d="M100.924069,38.0768294 L100.397661,38.0768294 C99.988233,38.0768294 99.6665394,37.7551357 99.6665394,37.3457074 L99.6665394,31.0873038 C99.6665394,30.6778755 99.988233,30.3561819 100.397661,30.3561819 L100.924069,30.3561819 C101.333497,30.3561819 101.655191,30.6778755 101.655191,31.0873038 L101.655191,37.3457074 C101.655191,37.7258908 101.333497,38.0768294 100.924069,38.0768294 Z M34.3919748,1.16979508 L33.16369,1.16979508 C32.8419964,1.16979508 32.5787925,0.906591217 32.5787925,0.584897541 C32.5787925,0.263203864 32.8419964,0 33.16369,0 L34.3919748,0 C34.7136685,0 34.9768724,0.263203864 34.9768724,0.584897541 C34.9768724,0.906591217 34.7136685,1.16979508 34.3919748,1.16979508 Z M101.450477,49.1606375 L100.222192,49.1606375 C99.988233,49.1606375 99.7835189,48.9559234 99.7835189,48.7219644 C99.7835189,48.4880054 99.988233,48.2832912 100.222192,48.2832912 L101.450477,48.2832912 C101.684436,48.2832912 101.88915,48.4880054 101.88915,48.7219644 C101.88915,48.9559234 101.684436,49.1606375 101.450477,49.1606375 Z M84.5176933,46.7040679 L90.2204443,46.7040679 L90.2204443,86.4771 L84.5176933,86.4771 L84.5176933,46.7040679 Z" id="Shape" fill="#F2F2F2"></path>
                <path d="M70.9188257,86.8572834 L33.6900978,86.8572834 C29.1863869,86.8280386 25.5307773,83.172429 25.5015324,78.668718 L25.5015324,21.2902701 C25.5307772,16.7865591 29.1863868,13.1309496 33.6900978,13.1017047 L67.4679303,13.1017047 C67.7018893,13.1017047 67.9358483,13.1894393 68.0820727,13.3649086 L78.8441872,24.3609822 C78.9904116,24.5364515 79.1073911,24.7411656 79.1073912,24.9751246 L79.1073912,78.668718 C79.0781463,83.1724289 75.4225368,86.8572834 70.9188257,86.8572834 L70.9188257,86.8572834 Z M34.0723249,15.8139967 C30.6200448,15.8425279 27.8239833,18.6385894 27.795452,22.0908694 L27.795452,78.0691623 C27.8239833,81.5214424 30.6200448,84.3175039 34.0723249,84.3460351 L70.3640621,84.3460351 C73.8163422,84.3460351 76.6409349,81.5214424 76.6409349,78.0691623 L76.6409349,26.0567118 L66.6264697,15.8139967 L34.0723249,15.8139967 Z" id="Shape" fill="#CCCCCC"></path>
                <path d="M13.1309496,54.0737768 L52.1143701,54.0737768 C53.1964305,54.0737768 54.044532,54.9511231 54.044532,56.0039386 L54.044532,76.6508215 C54.044532,77.7328819 53.1671857,78.5809834 52.1143701,78.5809834 L13.1309496,78.5809834 C12.0488892,78.5809834 11.2007877,77.7036371 11.2007877,76.6508215 L11.2007877,56.0039386 C11.2007877,54.9511231 12.0488891,54.0737767 13.1309496,54.0737768 Z" id="Shape" fill="#F2F2F2"></path>
                <path d="M32.4325682,28.0458367 C32.4322584,31.2118441 34.1211254,34.1374882 36.8629167,35.7205814 C39.6047079,37.3036745 42.9828235,37.3036745 45.7246148,35.7205814 C48.4664061,34.1374882 50.1552731,31.2118441 50.1549633,28.0458367 C50.1552731,24.8798292 48.4664061,21.9541851 45.7246148,20.3710919 C42.9828235,18.7879988 39.6047079,18.7879988 36.8629167,20.3710919 C34.1211254,21.9541851 32.4322584,24.8798292 32.4325682,28.0458367 L32.4325682,28.0458367 Z" id="Shape" fill="#F2F2F2"></path>
                <path d="M47.4936796,25.7062465 L42.3465813,25.7062465 C41.8494185,25.7062465 41.4692351,25.3260631 41.469235,24.8289002 C41.4692349,24.3317374 41.8494184,23.951554 42.3465813,23.951554 L47.4936796,23.951554 C47.9908424,23.951554 48.3710258,24.3317374 48.3710258,24.8289002 C48.3710258,25.3260631 47.9615976,25.7062465 47.4936796,25.7062465 Z" id="Shape" fill="#DDDDDD"></path>
                <path d="M64.689667,25.7062465 L53.4011446,25.7062465 C52.9039817,25.7062465 52.5237983,25.3260631 52.5237983,24.8289002 C52.5237983,24.3317374 52.9039817,23.951554 53.4011446,23.951554 L64.689667,23.951554 C65.1868298,23.951554 65.5670132,24.3317374 65.5670133,24.8289002 C65.5670134,25.3260631 65.1868299,25.7062465 64.689667,25.7062465 Z" id="Shape" fill="#F2F2F2"></path>
                <path d="M70.5971321,61.8821588 L59.3086097,61.8821588 C58.8114469,61.8821588 58.4312635,61.5019754 58.4312634,61.0048125 C58.4312633,60.5076497 58.8114468,60.1274663 59.3086097,60.1274663 L70.5971321,60.1274663 C71.094295,60.1274663 71.4744784,60.5076497 71.4744784,61.0048125 C71.4744784,61.5019754 71.094295,61.8821588 70.5971321,61.8821588 Z M70.5971321,68.023583 L59.3086097,68.023583 C58.8114469,68.023583 58.4312635,67.6433995 58.4312634,67.1462366 C58.4312633,66.6490737 58.8114468,66.2688903 59.3086097,66.2688903 L70.5971321,66.2688903 C71.094295,66.2688903 71.4744784,66.6490737 71.4744784,67.1462366 C71.4744784,67.6433995 71.094295,68.0235829 70.5971321,68.023583 Z M70.5971321,74.1942519 L59.3086097,74.1942519 C58.8114469,74.1942519 58.4312635,73.8140685 58.4312634,73.3169056 C58.4312633,72.8197427 58.8114468,72.4395593 59.3086097,72.4395593 L70.5971321,72.4395593 C71.094295,72.4395593 71.4744784,72.8197427 71.4744784,73.3169056 C71.4744784,73.8140685 71.094295,74.1942519 70.5971321,74.1942519 Z M54.8048987,33.2514247 L43.0777032,33.2514247 C42.5805403,33.2514247 42.2003569,32.8712413 42.2003569,32.3740784 C42.2003569,31.8769154 42.5805403,31.4967321 43.0777032,31.4967321 L54.8048987,31.4967321 C55.3020616,31.4967321 55.682245,31.8769155 55.682245,32.3740784 C55.6822451,32.8712412 55.2728168,33.2514246 54.8048987,33.2514247 Z M70.5971321,44.5107021 L32.9004862,44.5107021 C32.4033233,44.5107021 32.0231399,44.1305187 32.0231399,43.6333559 C32.0231399,43.136193 32.4033233,42.7560096 32.9004862,42.7560096 L70.5971321,42.7560096 C71.094295,42.7560096 71.4744784,43.136193 71.4744784,43.6333559 C71.4744784,44.1305187 71.094295,44.5107021 70.5971321,44.5107021 Z M70.5971321,50.8860853 L32.9004862,50.8860853 C32.4033233,50.8860853 32.0231399,50.5059019 32.0231399,50.008739 C32.0231399,49.5115761 32.4033233,49.1313927 32.9004862,49.1313926 L70.5971321,49.1313926 C71.094295,49.1313926 71.4744784,49.511576 71.4744784,50.008739 C71.4744784,50.5059019 71.094295,50.8860853 70.5971321,50.8860853 Z M84.5176933,50.1257184 L87.2374669,50.1257184 L87.2374669,50.8860853 L84.5176933,50.8860853 L84.5176933,50.1257184 Z M84.5176933,54.8048987 L87.2374669,54.8048987 L87.2374669,55.5652655 L84.5176933,55.5652655 L84.5176933,54.8048987 Z M84.5176933,59.4840789 L87.2374669,59.4840789 L87.2374669,60.2444457 L84.5176933,60.2444457 L84.5176933,59.4840789 Z M84.5176933,64.1632593 L87.2374669,64.1632593 L87.2374669,64.923626 L84.5176933,64.923626 L84.5176933,64.1632593 Z M84.5176933,68.8716844 L87.2374669,68.8716844 L87.2374669,69.6320512 L84.5176933,69.6320512 L84.5176933,68.8716844 Z M84.5176933,73.5508646 L87.2374669,73.5508646 L87.2374669,74.3112314 L84.5176933,74.3112314 L84.5176933,73.5508646 Z M84.5176933,78.2300448 L87.2374669,78.2300448 L87.2374669,78.9904116 L84.5176933,78.9904116 L84.5176933,78.2300448 Z M84.5176933,82.93847 L87.2374669,82.93847 L87.2374669,83.6988367 L84.5176933,83.6988367 L84.5176933,82.93847 Z" id="Shape" fill="#CCCCCC"></path>
                <path d="M32.6372823,68.6084805 L54.015287,57.4661824 C53.781328,55.5652655 52.4068188,54.1030216 50.7691057,54.1030217 L14.4762139,54.1030217 C13.1894394,54.1030217 12.0488892,55.0096128 11.5224814,56.3548772 L32.6372823,68.6084805 Z" id="Shape" fill="#F7F7F7"></path>
                <path d="M17.9855991,44.0427841 L22.3138408,44.0427841 L22.3138408,82.4997968 L17.9855991,82.4997968 L17.9855991,44.0427841 Z M17.9855991,83.0262046 L22.3138408,83.0262046 L22.3138408,86.243141 L17.9855991,86.243141 L17.9855991,83.0262046 Z M22.3430857,43.4871315 L20.1789649,38.7494615 L17.9855991,43.4871315 L22.3430857,43.4871315 Z" id="Shape" fill="#E2E2E2"></path>
            </g>
        </g>
    </g>
</svg>