<?xml version="1.0" encoding="UTF-8"?>
<svg width="18px" height="19px" viewBox="0 0 18 19" version="1.1" xmlns="http://www.w3.org/2000/svg" xmlns:xlink="http://www.w3.org/1999/xlink">
    <!-- Generator: Sketch 45.2 (43514) - http://www.bohemiancoding.com/sketch -->
    <title>联系人_高亮 copy</title>
    <desc>Created with Sketch.</desc>
    <defs></defs>
    <g id="Page-1" stroke="none" stroke-width="1" fill="none" fill-rule="evenodd">
        <g id="Artboard-2" transform="translate(-534.000000, -1009.000000)" stroke="#F9BDBB" stroke-width="1.5" fill-rule="nonzero">
            <g id="联系人_高亮-copy" transform="translate(534.000000, 1009.000000)">
                <path d="M4.5396703,5.16576731 C4.5396703,7.59657017 6.51022537,9.56712524 8.94102823,9.56712524 C11.3718311,9.56712524 13.3423861,7.59657017 13.3423861,5.16576731 C13.3423861,2.73496446 11.3718311,0.764409393 8.94102823,0.764409393 C6.51022537,0.764409393 4.5396703,2.73496446 4.5396703,5.16576731 Z" id="Shape"></path>
                <path d="M0.757204696,15.7590726 C0.757204696,16.7676942 4.37851743,17.7594654 8.93412373,17.7594654 C13.4899703,17.7594654 17.1121833,16.7676255 17.1128439,15.7590726 C17.1128439,12.9939101 15.1563107,11.8524371 11.1912951,11.8524371 L6.67875356,11.8524371 C2.7137379,11.8524371 0.757204696,12.9939101 0.757204696,15.7590726 Z" id="Shape"></path>
            </g>
        </g>
    </g>
</svg>