<?xml version="1.0" encoding="UTF-8"?>
<svg width="44px" height="44px" viewBox="0 0 44 44" version="1.1" xmlns="http://www.w3.org/2000/svg" xmlns:xlink="http://www.w3.org/1999/xlink">
    <!-- Generator: Sketch 45.2 (43514) - http://www.bohemiancoding.com/sketch -->
    <title>学校展开 (1)</title>
    <desc>Created with Sketch.</desc>
    <defs></defs>
    <g id="Page-1" stroke="none" stroke-width="1" fill="none" fill-rule="evenodd">
        <g id="Artboard-2" transform="translate(-427.000000, -865.000000)" fill-rule="nonzero">
            <g id="学校展开-(1)" transform="translate(427.000000, 865.000000)">
                <path d="M0,22 C1.48797825e-15,34.1502645 9.8497355,44 22,44 C34.1502645,44 44,34.1502645 44,22 C44,9.8497355 34.1502645,7.43989126e-16 22,0 C9.8497355,-7.43989126e-16 1.48797825e-15,9.8497355 0,22 Z" id="Shape" fill="#3DA8F4"></path>
                <path d="M9.7777778,16.7566667 L34.2222222,16.7566667 L34.2222222,19.91 L9.7777778,19.91 L9.7777778,16.7566667 Z M12.7844444,19.91 L15.8888889,19.91 L15.8888889,32.34 L12.8333333,32.34 L12.7844444,19.91 Z M20.4233333,19.91 L23.4788889,19.91 L23.4788889,32.0344444 L20.4233333,32.0344444 L20.4233333,19.91 Z M28.1111111,19.91 L31.0688889,19.91 L31.0688889,32.0344444 L28.1111111,32.0344444 L28.1111111,19.91 Z M9.7777778,29.6877778 L34.2222222,29.6877778 L34.2222222,33 L9.7777778,33 L9.7777778,29.6877778 Z M34.2222222,13.3466667 L22,8.55555555 L9.7777778,13.3466667 L9.7777778,15.0822222 L34.2222222,15.0822222 L34.2222222,13.3466667 Z" id="Shape" fill="#FFFFFF"></path>
            </g>
        </g>
    </g>
</svg>