<?xml version="1.0" encoding="UTF-8"?>
<svg width="18px" height="18px" viewBox="0 0 18 18" version="1.1" xmlns="http://www.w3.org/2000/svg" xmlns:xlink="http://www.w3.org/1999/xlink">
    <!-- Generator: Sketch 45.2 (43514) - http://www.bohemiancoding.com/sketch -->
    <title>展开 (8) copy 2</title>
    <desc>Created with Sketch.</desc>
    <defs></defs>
    <g id="Page-1" stroke="none" stroke-width="1" fill="none" fill-rule="evenodd">
        <g id="Artboard-2" transform="translate(-498.000000, -1002.000000)" fill-rule="nonzero" fill="#B6CAD4">
            <g id="展开-(8)-copy-2" transform="translate(498.000000, 1002.000000)">
                <polygon id="Shape" points="5.34485475 6.70429772 4.36710685 7.68066266 9.0055318 12.3190876 13.6425738 7.68066266 12.6648259 6.70291476 9.0055318 10.3635918"></polygon>
                <path d="M9,17.9891957 C5.78846967,17.9891957 2.82089326,16.2758647 1.21512808,13.4945979 C-0.390637098,10.713331 -0.390637098,7.28666897 1.21512808,4.50540213 C2.82089326,1.72413529 5.78846967,0.010804282 9,0.0108043298 C13.9645957,0.0108043298 17.9891957,4.03540432 17.9891957,9 C17.9891957,13.9645957 13.9645957,17.9891957 9,17.9891957 Z M9,16.6062425 C13.2008117,16.6062425 16.6062425,13.2008117 16.6062425,9 C16.6062425,4.79918827 13.2008117,1.39375751 9,1.39375751 C4.79918827,1.39375751 1.39375751,4.79918827 1.39375751,9 C1.39375751,13.2008117 4.79918827,16.6062425 9,16.6062425 L9,16.6062425 Z" id="Shape" opacity="0.5"></path>
            </g>
        </g>
    </g>
</svg>