<?xml version="1.0" encoding="UTF-8"?>
<svg width="24px" height="22px" viewBox="0 0 24 22" version="1.1" xmlns="http://www.w3.org/2000/svg" xmlns:xlink="http://www.w3.org/1999/xlink">
    <!-- Generator: Sketch 45.2 (43514) - http://www.bohemiancoding.com/sketch -->
    <title>客户管理</title>
    <desc>Created with Sketch.</desc>
    <defs></defs>
    <g id="Page-1" stroke="none" stroke-width="1" fill="none" fill-rule="evenodd">
        <g id="Artboard-2" transform="translate(-2387.000000, -1928.000000)" fill-rule="nonzero" fill="#CCCCCC">
            <g id="客户管理" transform="translate(2387.000000, 1928.000000)">
                <path d="M14.6666738,22 L0.862748047,22 C0.422748047,22 0,21.577252 0,21.137252 C0,20.5454219 0.422748047,20.1235332 0.862748047,20.2745039 L2.58824414,20.2745039 L2.58824414,1.29413281 L14.6666738,1.29413281 L14.6666738,22 Z M9.92157031,5.1764668 C9.80715821,5.1764611 9.6974305,5.2219086 9.61652893,5.30281018 C9.53562735,5.38371175 9.49017985,5.49343946 9.49018555,5.60785156 L9.49018555,6.03921484 C9.49018555,6.15362322 9.53563557,6.26334542 9.61653652,6.34424234 C9.69743748,6.42513927 9.80716193,6.47058382 9.92157031,6.47057812 L11.6470664,6.47057812 C11.8853018,6.47057812 12.0784297,6.27745021 12.0784297,6.03921484 L12.0784297,5.60785156 C12.0784354,5.49344318 12.0329908,5.38371873 11.9520939,5.30281777 C11.871197,5.22191682 11.7614748,5.1764668 11.6470664,5.1764668 L9.92157031,5.1764668 L9.92157031,5.1764668 Z M9.92157031,14.6666738 C9.80716193,14.6666681 9.69743748,14.7121127 9.61653652,14.7930096 C9.53563557,14.8739065 9.49018555,14.9836287 9.49018555,15.0980371 L9.49018555,15.5294219 C9.49018555,15.6438303 9.53563557,15.7535524 9.61653652,15.8344494 C9.69743748,15.9153463 9.80716193,15.9607909 9.92157031,15.9607852 L11.6470664,15.9607852 C11.8853018,15.9607852 12.0784297,15.7676572 12.0784297,15.5294219 L12.0784297,15.0980371 C12.0784297,14.8598017 11.8853018,14.6666738 11.6470664,14.6666738 L9.92157031,14.6666738 L9.92157031,14.6666738 Z M9.92157031,9.92157031 C9.80716193,9.92156461 9.69743748,9.96700917 9.61653652,10.0479061 C9.53563557,10.128803 9.49018555,10.2385252 9.49018555,10.3529336 L9.49018555,10.7843184 C9.49018555,10.8987267 9.53563557,11.0084489 9.61653652,11.0893459 C9.69743748,11.1702428 9.80716193,11.2156873 9.92157031,11.2156816 L11.6470664,11.2156816 C11.8853018,11.2156816 12.0784297,11.0225537 12.0784297,10.7843184 L12.0784297,10.3529336 C12.0784297,10.1146982 11.8853018,9.92157031 11.6470664,9.92157031 L9.92157031,9.92157031 L9.92157031,9.92157031 Z M5.60785156,5.17644531 C5.49343946,5.17643961 5.38371175,5.22188712 5.30281018,5.30278869 C5.2219086,5.38369026 5.1764611,5.49341798 5.1764668,5.60783008 L5.1764668,6.03919336 C5.1764668,6.15360174 5.22191682,6.26332393 5.30281777,6.34422086 C5.38371873,6.42511778 5.49344318,6.47056234 5.60785156,6.47055664 L7.33332617,6.47055664 C7.44773455,6.47056234 7.55745901,6.42511778 7.63835996,6.34422086 C7.71926092,6.26332393 7.76471094,6.15360174 7.76471094,6.03919336 L7.76471094,5.60785156 C7.76471664,5.49343946 7.71926913,5.38371175 7.63836756,5.30281018 C7.55746599,5.2219086 7.44773827,5.1764611 7.33332617,5.1764668 L5.60785156,5.1764668 L5.60785156,5.17644531 Z M5.60785156,14.6666523 C5.49344318,14.6666466 5.38371873,14.7120912 5.30281777,14.7929881 C5.22191682,14.8738851 5.1764668,14.9836072 5.1764668,15.0980156 L5.1764668,15.5294004 C5.1764668,15.6438088 5.22191682,15.753531 5.30281777,15.8344279 C5.38371873,15.9153248 5.49344318,15.9607694 5.60785156,15.9607637 L7.33332617,15.9607637 C7.44773455,15.9607694 7.55745901,15.9153248 7.63835996,15.8344279 C7.71926092,15.753531 7.76471094,15.6438088 7.76471094,15.5294004 L7.76471094,15.0980156 C7.76471094,14.9836072 7.71926092,14.8738851 7.63835996,14.7929881 C7.55745901,14.7120912 7.44773455,14.6666466 7.33332617,14.6666523 L5.60785156,14.6666523 Z M5.60785156,9.92154883 C5.49344318,9.92154313 5.38371873,9.96698769 5.30281777,10.0478846 C5.22191682,10.1287815 5.1764668,10.2385037 5.1764668,10.3529121 L5.1764668,10.7842969 C5.1764668,10.8987053 5.22191682,11.0084274 5.30281777,11.0893244 C5.38371873,11.1702213 5.49344318,11.2156659 5.60785156,11.2156602 L7.33332617,11.2156602 C7.44773455,11.2156659 7.55745901,11.1702213 7.63835996,11.0893244 C7.71926092,11.0084274 7.76471094,10.8987053 7.76471094,10.7842969 L7.76471094,10.3529121 C7.76471094,10.2385037 7.71926092,10.1287815 7.63835996,10.0478846 C7.55745901,9.96698769 7.44773455,9.92154313 7.33332617,9.92154883 L5.60785156,9.92154883 Z" id="Shape"></path>
                <path d="M3.4509707,0 L13.8039258,0 C14.0327408,-3.92446227e-16 14.2521841,0.0908964083 14.4139808,0.252693052 C14.5757774,0.414489697 14.6666738,0.633933038 14.6666738,0.862748047 L14.6666738,1.72549609 L2.58822266,1.72549609 L2.58822266,0.862748047 C2.58822266,0.386265458 2.97448811,8.75284317e-17 3.4509707,0 Z M15.5294434,22 L15.5294434,6.03921484 L19.1372949,6.03921484 C19.4595176,6.03878516 19.9353105,6.23332617 20.4313848,6.47057812 C20.6371621,6.9269707 20.833873,7.39760742 20.8627695,7.76471094 L20.8627695,20.2745039 L22.5882656,20.2745039 C23.0647482,20.2745039 23.4510137,20.6607694 23.4510137,21.137252 C23.4510137,21.6137345 23.0647482,22 22.5882656,22 L15.5294434,22 Z M18.117666,9.92157031 C17.8794307,9.92157031 17.6863027,10.1146982 17.6863027,10.3529336 L17.6863027,10.7843184 C17.6863027,11.0225537 17.8794307,11.2156816 18.117666,11.2156816 L19.8431621,11.2156816 C20.0813975,11.2156816 20.2745254,11.0225537 20.2745254,10.7843184 L20.2745254,10.3529336 C20.2745254,10.1146982 20.0813975,9.92157031 19.8431621,9.92157031 L18.117666,9.92157031 L18.117666,9.92157031 Z M18.117666,14.6666738 C17.8794307,14.6666738 17.6863027,14.8598017 17.6863027,15.0980371 L17.6863027,15.5294219 C17.6863027,15.7676572 17.8794307,15.9607852 18.117666,15.9607852 L19.8431621,15.9607852 C20.0813975,15.9607852 20.2745254,15.7676572 20.2745254,15.5294219 L20.2745254,15.0980371 C20.2745254,14.8598017 20.0813975,14.6666738 19.8431621,14.6666738 L18.117666,14.6666738 L18.117666,14.6666738 Z" id="Shape"></path>
            </g>
        </g>
    </g>
</svg>