<?xml version="1.0" encoding="UTF-8"?>
<svg width="19px" height="22px" viewBox="0 0 19 22" version="1.1" xmlns="http://www.w3.org/2000/svg" xmlns:xlink="http://www.w3.org/1999/xlink">
    <!-- Generator: Sketch 45.2 (43514) - http://www.bohemiancoding.com/sketch -->
    <title>Group 2</title>
    <desc>Created with Sketch.</desc>
    <defs></defs>
    <g id="Page-1" stroke="none" stroke-width="1" fill="none" fill-rule="evenodd">
        <g id="Artboard-2" transform="translate(-2328.000000, -1928.000000)" fill-rule="nonzero" fill="#CCCCCC">
            <g id="Group-2" transform="translate(2328.000000, 1928.000000)">
                <path d="M18.857132,19.5477871 L18.857132,1.56436889 C18.8515147,0.698442652 18.1477201,-0.00043768447 17.2817758,1.26363032e-05 L1.57535622,1.26363032e-05 C1.15894051,-0.00165740515 0.758939532,0.162270516 0.463456991,0.455689841 C0.167974451,0.749109167 0.00124778502,1.1479517 0,1.56436889 L0,20.434858 C-2.09356221e-15,21.2928575 0.70557101,22 1.57535622,22 L17.1607758,22 L10.8106366,15.6498608 L12.8849211,13.5755763 L18.857132,19.5477871 Z M3.92856918,20.4285723 L2.3571415,20.4285723 L2.3571415,1.57144032 L3.92856918,1.57144032 L3.92856918,20.4285723 Z M10.1522084,14.9914326 L9.92670856,14.7659327 L9.45920884,12.0929343 L12.0992073,12.7906482 L12.226493,12.9179338 L10.1522084,14.9914326 L10.1522084,14.9914326 Z" id="Shape"></path>
            </g>
        </g>
    </g>
</svg>