<?xml version="1.0" encoding="UTF-8"?>
<svg width="21px" height="22px" viewBox="0 0 21 22" version="1.1" xmlns="http://www.w3.org/2000/svg" xmlns:xlink="http://www.w3.org/1999/xlink">
    <!-- Generator: Sketch 45.2 (43514) - http://www.bohemiancoding.com/sketch -->
    <title>我的 (2)</title>
    <desc>Created with Sketch.</desc>
    <defs></defs>
    <g id="Page-1" stroke="none" stroke-width="1" fill="none" fill-rule="evenodd">
        <g id="Artboard-2" transform="translate(-2522.000000, -1928.000000)" fill-rule="nonzero" fill="#CCCCCC">
            <g id="我的-(2)" transform="translate(2522.000000, 1928.000000)">
                <path d="M4.65074107,5.57582143 C4.65074107,8.65526258 7.14712136,11.1516429 10.2265625,11.1516429 C13.3060036,11.1516429 15.8023839,8.65526258 15.8023839,5.57582143 C15.8023839,2.49638029 13.3060036,1.88561387e-16 10.2265625,0 C7.14712136,-1.88561387e-16 4.65074107,2.49638029 4.65074107,5.57582143 L4.65074107,5.57582143 Z" id="Shape"></path>
                <path d="M0.00834820508,17.2366071 C0.00834815068,18.9384035 1.95592878,20.5109282 5.11745531,21.3618264 C8.27898184,22.2127246 12.1741432,22.2127246 15.3356697,21.3618264 C18.4971962,20.5109282 20.4447768,18.9384035 20.4447768,17.2366071 C20.4447768,14.6058579 15.8699264,12.4732143 10.2265625,12.4732143 C4.58319857,12.4732143 0.00834820508,14.6058579 0.00834820508,17.2366071 L0.00834820508,17.2366071 Z" id="Shape"></path>
            </g>
        </g>
    </g>
</svg>