<?xml version="1.0" encoding="UTF-8"?>
<svg width="20px" height="22px" viewBox="0 0 20 22" version="1.1" xmlns="http://www.w3.org/2000/svg" xmlns:xlink="http://www.w3.org/1999/xlink">
    <!-- Generator: Sketch 45.2 (43514) - http://www.bohemiancoding.com/sketch -->
    <title>Group 13</title>
    <desc>Created with Sketch.</desc>
    <defs></defs>
    <g id="Page-1" stroke="none" stroke-width="1" fill="none" fill-rule="evenodd">
        <g id="Artboard-2" transform="translate(-2291.000000, -1965.000000)" fill-rule="nonzero" fill="#CCCCCC">
            <g id="Group-13" transform="translate(2291.000000, 1965.000000)">
                <path d="M17.0003787,1.22827642 C17.0003787,1.22177818 16.9987473,1.21449145 16.9987473,1.2080204 C16.9628574,1.20315351 16.9269676,1.19749815 16.8869993,1.19749813 L14.6022828,1.19749813 C14.6243062,1.31982278 14.6381727,1.44375157 14.6381727,1.57012743 C14.6398041,2.51060514 13.9554495,3.43566653 13.143849,3.43566653 L6.12737955,3.43566653 C5.27254811,3.43566653 4.58819355,2.51057796 4.58819355,1.57012743 C4.5898249,1.44538294 4.60369146,1.31982278 4.62571477,1.19749813 L2.31326522,1.19749813 C2.29287324,1.19749813 2.27655968,1.20154934 2.2561677,1.20236502 C2.25698337,1.21128309 2.25535203,1.22098969 2.2561677,1.23072344 C1.00002228,1.31090467 0,2.34129739 0,3.60823698 L0,19.563867 C0,20.8826294 1.08077447,21.9567697 2.40951533,21.9567697 L16.8690544,21.9567697 C18.1977952,21.9567697 19.2785697,20.8826294 19.2785697,19.563867 L19.2785697,3.60823698 C19.2785697,2.33319499 18.2671279,1.29793538 17.0003787,1.22827642 Z M15.1104508,9.9193346 L9.54833667,15.3288624 C9.20493588,15.662611 8.60051784,15.6617953 8.25630135,15.3296781 L5.02458173,12.189097 C4.85328917,12.0230248 4.75867041,11.8002629 4.75867044,11.5629275 C4.75867044,11.3263806 4.8532892,11.1044344 5.02458173,10.9391779 C5.19668996,10.7723172 5.42671141,10.6791395 5.67141507,10.6791395 C5.91530306,10.6791395 6.14532449,10.77229 6.31743272,10.9383622 L8.902319,13.4495383 L13.8184155,8.66859985 C14.1618162,8.33406277 14.7662343,8.33485124 15.1104508,8.66859985 C15.2817433,8.83385638 15.3763621,9.05661828 15.3763621,9.29313794 C15.3771777,9.53052767 15.2817433,9.7524739 15.1104508,9.9193346 L15.1104508,9.9193346 Z M12.2081023,0 L7.1688383,0 C7.16489586,0 7.16103497,0.0010233 7.15709253,0.001228 L12.2198752,0.001228 C12.2159328,0.0010233 12.2120447,0 12.2081023,0 Z" id="Shape"></path>
                <path d="M12.061663,3.77583096e-16 L6.99888032,3.77583096e-16 C6.44239702,0.00693326812 6,0.503001969 6,1.11756161 C6,1.73562868 6.45025474,2.23786933 7.01062609,2.23786931 L12.0792545,2.23786931 C12.6127085,2.23786931 13.0637789,1.73726 13.0637789,1.11756161 C13.0637789,0.503001969 12.6205662,0.00693326812 12.061663,3.77583096e-16 Z" id="Shape"></path>
            </g>
        </g>
    </g>
</svg>