<?xml version="1.0" encoding="UTF-8"?>
<svg width="22px" height="22px" viewBox="0 0 22 22" version="1.1" xmlns="http://www.w3.org/2000/svg" xmlns:xlink="http://www.w3.org/1999/xlink">
    <!-- Generator: Sketch 45.2 (43514) - http://www.bohemiancoding.com/sketch -->
    <title>商机跟踪</title>
    <desc>Created with Sketch.</desc>
    <defs></defs>
    <g id="Page-1" stroke="none" stroke-width="1" fill="none" fill-rule="evenodd">
        <g id="Artboard-2" transform="translate(-2438.000000, -1928.000000)" fill-rule="nonzero" fill="#CCCCCC">
            <g id="商机跟踪" transform="translate(2438.000000, 1928.000000)">
                <path d="M5.53463671,10.9993125 C5.53463675,14.0173696 7.98125545,16.4639883 10.9993125,16.4639883 C14.0173696,16.4639883 16.4639883,14.0173696 16.4639884,10.9993125 C16.4639883,7.98125545 14.0173696,5.53463679 10.9993125,5.53463679 C7.98125545,5.53463679 5.53463675,7.98125545 5.53463671,10.9993125 Z" id="Shape"></path>
                <path d="M21.4142866,10.2699206 L21.2651084,10.2547966 C21.2602962,10.2547966 21.2561715,10.2520467 21.2513593,10.2520467 C21.2465471,10.2520467 21.2424224,10.2547966 21.2376102,10.2547966 L19.8709456,10.2547966 C19.5024686,5.94375351 16.0610587,2.51265547 11.7431411,2.15998999 L11.7431411,0.75964002 C11.7431411,0.75482782 11.7458909,0.750703078 11.7458909,0.745890879 C11.7458909,0.74107868 11.7431411,0.736953938 11.7431411,0.732141738 L11.7287045,0.584338477 C11.6517093,0.252984188 11.3540404,0 10.9993125,0 C10.6445847,0 10.3469158,0.252984188 10.2699206,0.584338477 L10.2547966,0.734891566 C10.2547966,0.739016309 10.2527342,0.742453594 10.2527342,0.746578336 C10.2527342,0.750703078 10.2547966,0.754140363 10.2547966,0.758265105 L10.2547966,2.15998999 C5.94925317,2.52159239 2.51746765,5.94856571 2.14830322,10.2547966 L0.758952563,10.2602962 L0.584338477,10.2602962 C0.25229673,10.3372914 0,10.6452722 0,10.9993125 C0,11.3533529 0.25229673,11.6517093 0.584338477,11.7287045 L0.733516652,11.7431411 C0.738328852,11.7431411 0.742453594,11.7458909 0.747265793,11.7458909 C0.752077992,11.7458909 0.756202734,11.7431411 0.761014934,11.7431411 L2.14486594,11.7431411 C2.49134428,16.072058 5.93069183,19.5251547 10.255484,19.8901944 L10.255484,21.2410474 C10.255484,21.2451722 10.2534217,21.2486095 10.2534217,21.2527342 C10.2534217,21.2568589 10.255484,21.2602962 10.255484,21.264421 L10.2706081,21.4156615 C10.3469158,21.7456409 10.6445847,21.9986251 10.9993125,21.9986251 C11.3540404,21.9986251 11.6517093,21.7456409 11.7287045,21.4142866 L11.7431411,21.2651084 C11.7431411,21.2602962 11.7458909,21.2561715 11.7458909,21.2513593 C11.7458909,21.2465471 11.7431411,21.2424224 11.7431411,21.2376102 L11.7431411,19.8888195 C12.6832509,19.8133055 13.605395,19.5889186 14.4750953,19.2240485 C17.5304795,17.932164 19.6138829,15.0483075 19.88057,11.7417661 L21.2389851,11.7424536 L21.2664833,11.7424536 L21.4156615,11.7273295 C21.7463284,11.6517093 21.9986251,11.3526655 21.9986251,10.9993125 C21.9986251,10.6445847 21.7463284,10.3462284 21.4142866,10.2699206 Z M11.0213112,18.7015811 C6.75289044,18.7077683 3.288107,15.2519217 3.28191989,10.983501 C3.27573278,6.71576776 6.73157927,3.25098432 10.9993125,3.24548467 C15.267274,3.24016512 18.7318747,6.69491804 18.7387038,10.9628773 C18.7442035,15.2306106 15.2876695,18.6947066 11.0213112,18.7015811 Z" id="Shape"></path>
            </g>
        </g>
    </g>
</svg>