<?xml version="1.0" encoding="UTF-8"?>
<svg width="18px" height="18px" viewBox="0 0 18 18" version="1.1" xmlns="http://www.w3.org/2000/svg" xmlns:xlink="http://www.w3.org/1999/xlink">
    <!-- Generator: Sketch 45.2 (43514) - http://www.bohemiancoding.com/sketch -->
    <title>添加 (9)</title>
    <desc>Created with Sketch.</desc>
    <defs></defs>
    <g id="Page-1" stroke="none" stroke-width="1" fill="none" fill-rule="evenodd">
        <g id="Artboard-2" transform="translate(-2322.000000, -1083.000000)" fill-rule="nonzero" fill="#3DA8F4">
            <g id="添加-(9)" transform="translate(2322.000000, 1083.000000)">
                <path d="M16.749457,10.2501035 L1.25050781,10.2501035 C0.562957031,10.2501035 0.000421875,9.68755078 0.000421875,9 C0.000421875,8.31243164 0.562957031,7.74989648 1.25052539,7.74989648 L16.749457,7.74989648 C17.4370254,7.74989648 17.999543,8.31244922 17.999543,9 C17.9995605,9.68756836 17.4370254,10.2501035 16.749457,10.2501035 Z" id="Shape"></path>
                <path d="M7.74987891,16.749457 L7.74987891,1.25050781 C7.74987891,0.562957031 8.31243164,0.000421875 9,0.000421875 C9.68756836,0.000421875 10.2501035,0.562957031 10.2501035,1.25052539 L10.2501035,16.749457 C10.2501035,17.4370254 9.68755078,17.999543 9,17.999543 C8.31244922,17.9995605 7.74989648,17.4370254 7.74989648,16.749457 L7.74987891,16.749457 Z" id="Shape"></path>
            </g>
        </g>
    </g>
</svg>