<?xml version="1.0" encoding="UTF-8"?>
<svg width="88px" height="88px" viewBox="0 0 88 88" version="1.1" xmlns="http://www.w3.org/2000/svg" xmlns:xlink="http://www.w3.org/1999/xlink">
    <!-- Generator: Sketch 45.2 (43514) - http://www.bohemiancoding.com/sketch -->
    <title>crm</title>
    <desc>Created with Sketch.</desc>
    <defs></defs>
    <g id="Page-1" stroke="none" stroke-width="1" fill="none" fill-rule="evenodd">
        <g id="Artboard-2" transform="translate(-1213.000000, -956.000000)" fill-rule="nonzero" fill="#38A4F2">
            <g id="crm" transform="translate(1213.000000, 956.000000)">
                <path d="M77.2205128,5.01023724e-15 L10.6769231,5.01023724e-15 C4.8,5.01023724e-15 -3.55271368e-15,4.81025641 -3.55271368e-15,10.6769231 L-3.55271368e-15,77.2307692 C-3.55271368e-15,83.1076923 4.81025641,87.9076923 10.6769231,87.9076923 L77.2307692,87.9076923 C83.1076923,87.9076923 87.9076923,83.0974359 87.9076923,77.2307692 L87.9076923,10.6871795 C87.9076923,4.81025641 83.0974359,3.55271368e-15 77.2205128,5.01023724e-15 Z M42.366277,58.0077994 C41.300749,58.8443709 40.0238767,59.2582537 38.4916299,59.2582537 C36.9153531,59.2582537 35.6384807,58.9412371 34.6434009,58.2983979 C33.6571271,57.6555588 32.9086158,56.7221211 32.3890608,55.5068909 C31.8783119,54.2916606 31.6141314,52.9883703 31.6141314,51.5882137 C31.6141314,50.064773 31.90473,48.7438706 32.485927,47.6078945 C33.0671241,46.4807245 33.8948896,45.6089289 34.9692235,45.0277318 C36.0435575,44.4377287 37.2235636,44.1383242 38.518048,44.1383242 C39.9798466,44.1383242 41.2126889,44.5169829 42.2077687,45.2566882 C43.2116545,46.0051996 43.9073298,47.0531155 44.2947945,48.4004359 L42.392695,48.8495428 C42.0492604,47.7840148 41.5561235,47.0178914 40.9132843,46.5247545 C40.2704452,46.0404237 39.4602917,45.7938552 38.4828239,45.7938552 C37.3556539,45.7938552 36.4222162,46.0580357 35.6648988,46.6040087 C34.9075814,47.1411757 34.3792205,47.863269 34.0798159,48.7790946 C33.7716054,49.6861143 33.6130971,50.619552 33.6130971,51.5882137 C33.6130971,52.829862 33.7980234,53.913002 34.1590701,54.8464397 C34.5201167,55.7798773 35.0837017,56.4667466 35.8498251,56.9334654 C36.5983365,57.3825723 37.4613261,57.6203347 38.3331216,57.6203347 C39.4162616,57.6203347 40.3320873,57.3121241 41.0805986,56.678091 C41.837916,56.0616699 42.3398589,55.1282322 42.6128454,53.8953899 L44.5501689,54.3885268 C44.1450922,55.9559977 43.4229989,57.1624219 42.366277,58.0077994 L42.366277,58.0077994 Z M42.4191131,37.7627686 C40.74597,34.9184255 37.6638644,33.00752 34.123846,33.00752 C31.5701014,33.00752 29.1220289,34.0290178 27.3167956,35.8342511 C25.5115624,37.6394844 24.4900645,40.0963629 24.4900645,42.6501075 C24.4900645,43.1168263 24.5252886,43.5747392 24.5957367,44.032652 C24.5605126,44.032652 24.5252886,44.023846 24.4900645,44.023846 C19.1712308,44.023846 14.856283,48.3387938 14.856283,53.6576275 C14.856283,58.9764612 19.1712308,63.291409 24.4900645,63.291409 L39.9798466,63.291409 L39.9798466,66.047692 L24.4900645,66.047692 C17.6477901,66.047692 12.1,60.4999019 12.1,53.6576275 C12.1,47.7399847 16.2476335,42.7998098 21.7866176,41.5757736 C22.3325906,35.235442 27.6338122,30.260043 34.11504,30.260043 C36.5102763,30.260043 38.8526766,30.9557183 40.8604482,32.2678146 C43.3261327,26.2444997 49.2349694,22 56.147692,22 C65.2707246,22 72.667778,29.3970534 72.667778,38.520086 C72.667778,39.3390455 72.5797178,40.149199 72.4652396,40.9329344 L69.6913446,40.9329344 C69.8322408,40.1315869 69.920301,39.3302395 69.920301,38.520086 C69.920301,30.9204942 63.7560898,24.747477 56.156498,24.747477 C48.7946686,24.747477 42.8153838,30.5154175 42.4191131,37.7627686 L42.4191131,37.7627686 Z M57.4245643,59.0116852 L55.4872408,55.9648037 C54.9148498,55.0842021 54.4569369,54.4149449 54.0870843,53.948226 C53.7172316,53.4815072 53.391409,53.1556846 53.1008105,52.9707582 C52.827824,52.7946379 52.5284194,52.6625477 52.2202089,52.5832935 C52.0000585,52.5304574 51.6478178,52.5128454 51.1458749,52.5128454 L48.9003408,52.5128454 L48.9003408,59.0028792 L46.9630173,59.0028792 L46.9630173,44.3848927 L53.4442451,44.3848927 C54.7563415,44.3848927 55.7426153,44.5169829 56.4206785,44.7811634 C57.0987417,45.0453439 57.6447147,45.5120627 58.0497914,46.1725139 C58.4548682,46.8417711 58.6574066,47.5726704 58.6574066,48.3740179 C58.6574066,49.4131278 58.3227779,50.2849234 57.6535207,50.9982107 C56.9842635,51.711498 55.9451536,52.1606048 54.5449971,52.3543371 C55.055746,52.6009056 55.4432107,52.847474 55.7161972,53.0852365 C56.2797822,53.5959854 56.8169492,54.2476306 57.3276981,55.031366 L59.8726368,59.0116852 L57.4245643,59.0116852 L57.4245643,59.0116852 Z M75.5913753,59.0116852 L73.7333059,59.0116852 L73.7333059,46.762517 L69.4800002,59.0116852 L67.736409,59.0116852 L63.5095214,46.5599786 L63.5095214,59.0116852 L61.63384,59.0116852 L61.63384,44.3848927 L64.5486312,44.3848927 L68.0093955,54.7407675 C68.255964,55.4628608 68.4849204,56.1849541 68.7050708,56.9158534 C68.9516392,56.132118 69.2158197,55.3483826 69.4888062,54.5734532 L72.9847946,44.3936987 L75.5913753,44.3936987 L75.5913753,59.0116852 L75.5913753,59.0116852 Z M56.2797822,49.6861143 C56.0156018,50.082385 55.6369431,50.3729835 55.1438062,50.5667159 C54.6418633,50.7516422 53.954994,50.8485084 53.0655864,50.8485084 L48.9091468,50.8485084 L48.9091468,46.0051996 L53.5323052,46.0051996 C54.6154452,46.0051996 55.4167927,46.22535 55.9099296,46.6744568 C56.4206785,47.1147576 56.6672469,47.6783426 56.6672469,48.3740179 C56.6672469,48.8407367 56.5351567,49.2986496 56.2797822,49.6861143 Z" id="Shape"></path>
            </g>
        </g>
    </g>
</svg>