<?xml version="1.0" encoding="UTF-8"?>
<svg width="18px" height="5px" viewBox="0 0 18 5" version="1.1" xmlns="http://www.w3.org/2000/svg" xmlns:xlink="http://www.w3.org/1999/xlink">
    <!-- Generator: Sketch 45.2 (43514) - http://www.bohemiancoding.com/sketch -->
    <title>更多 (10)</title>
    <desc>Created with Sketch.</desc>
    <defs></defs>
    <g id="Page-1" stroke="none" stroke-width="1" fill="none" fill-rule="evenodd">
        <g id="Artboard-2" transform="translate(-2322.000000, -1058.000000)" fill-rule="nonzero" fill="#3DA8F4">
            <g id="更多-(10)" transform="translate(2322.000000, 1058.000000)">
                <path d="M0,2.04557918 C8.72082857e-16,3.17532137 0.915836996,4.09115837 2.04557918,4.09115837 C3.17532137,4.09115837 4.09115837,3.17532137 4.09115837,2.04557918 C4.09115837,0.915836996 3.17532137,0 2.04557918,0 C0.915836996,0 8.72082857e-16,0.915836996 0,2.04557918 Z" id="Shape"></path>
                <path d="M6.94474133,2.04557918 C6.94474133,3.17532137 7.86057832,4.09115837 8.99032051,4.09115837 C10.1200627,4.09115837 11.0358997,3.17532137 11.0358997,2.04557918 C11.0358997,0.915836996 10.1200627,0 8.99032051,0 C7.86057832,0 6.94474133,0.915836996 6.94474133,2.04557918 Z" id="Shape"></path>
                <path d="M13.8894827,2.04557918 C13.8894827,3.17532137 14.8053197,4.09115837 15.9350618,4.09115837 C17.064804,4.09115837 17.980641,3.17532137 17.980641,2.04557918 C17.980641,0.915836996 17.064804,0 15.9350618,0 C14.8053197,0 13.8894827,0.915836996 13.8894827,2.04557918 Z" id="Shape"></path>
            </g>
        </g>
    </g>
</svg>