<?xml version="1.0" encoding="UTF-8"?>
<svg width="18px" height="18px" viewBox="0 0 18 18" version="1.1" xmlns="http://www.w3.org/2000/svg" xmlns:xlink="http://www.w3.org/1999/xlink">
    <!-- Generator: Sketch 45.2 (43514) - http://www.bohemiancoding.com/sketch -->
    <title>搜索 (10)</title>
    <desc>Created with Sketch.</desc>
    <defs></defs>
    <g id="Page-1" stroke="none" stroke-width="1" fill="none" fill-rule="evenodd">
        <g id="Artboard-2" transform="translate(-1891.000000, -887.000000)" fill-rule="nonzero" fill="#2DB3E5">
            <g id="搜索-(10)" transform="translate(1891.000000, 887.000000)">
                <path d="M7.31003906,1.93359375 C8.03670117,1.93359375 8.74061719,2.07548438 9.40220508,2.35531055 C10.0421895,2.62601367 10.6173809,3.01392773 11.1117656,3.5083125 C11.6061504,4.00269727 11.994082,4.57788867 12.2647676,5.21787305 C12.5445937,5.87946094 12.6864844,6.58337695 12.6864844,7.31003906 C12.6864844,8.03670117 12.5445937,8.74061719 12.2647676,9.40220508 C11.9940645,10.0421895 11.6061504,10.6173809 11.1117656,11.1117656 C10.6173809,11.6061504 10.0421895,11.994082 9.40220508,12.2647676 C8.74061719,12.5445937 8.03670117,12.6864844 7.31003906,12.6864844 C6.58337695,12.6864844 5.87946094,12.5445937 5.21787305,12.2647676 C4.57788867,11.9940645 4.00269727,11.6061504 3.5083125,11.1117656 C3.01392773,10.6173809 2.62599609,10.0421895 2.35531055,9.40220508 C2.0754668,8.74061719 1.93359375,8.03671875 1.93359375,7.31003906 C1.93359375,6.58335938 2.07548437,5.87946094 2.35531055,5.21787305 C2.62601367,4.57788867 3.01392773,4.00269727 3.5083125,3.5083125 C4.00269727,3.01392773 4.57788867,2.62599609 5.21787305,2.35531055 C5.87946094,2.0754668 6.58337695,1.93359375 7.31003906,1.93359375 L7.31003906,1.93359375 Z M7.31003906,0 C3.27281836,0 0,3.27281836 0,7.31003906 C0,11.3472598 3.27281836,14.6200781 7.31003906,14.6200781 C11.3472598,14.6200781 14.6200781,11.3472598 14.6200781,7.31003906 C14.6200781,3.27281836 11.3472773,0 7.31003906,0 Z" id="Shape"></path>
                <path d="M17.0214785,17.9876953 C16.7732754,17.9876953 16.525125,17.8927207 16.3361953,17.7028945 L11.150332,12.4920352 C10.7736855,12.1135781 10.7751445,11.5014375 11.1536191,11.124791 C11.5320937,10.7481445 12.1442168,10.7495859 12.5208809,11.1280957 L17.7067441,16.3389199 C18.0833906,16.717377 18.0819316,17.3295176 17.703457,17.7061641 C17.5148086,17.8938984 17.2681172,17.9876953 17.0214785,17.9876953 L17.0214785,17.9876953 Z" id="Shape"></path>
            </g>
        </g>
    </g>
</svg>