<?xml version="1.0" encoding="UTF-8"?>
<svg width="32px" height="33px" viewBox="0 0 32 33" version="1.1" xmlns="http://www.w3.org/2000/svg" xmlns:xlink="http://www.w3.org/1999/xlink">
    <!-- Generator: Sketch 45.2 (43514) - http://www.bohemiancoding.com/sketch -->
    <title>公司 (3)</title>
    <desc>Created with Sketch.</desc>
    <defs></defs>
    <g id="Page-1" stroke="none" stroke-width="1" fill="none" fill-rule="evenodd">
        <g id="Artboard-2" transform="translate(-534.000000, -872.000000)" fill-rule="nonzero">
            <g id="公司-(3)" transform="translate(534.000000, 872.000000)">
                <path d="M25.1850698,10.4288452 L22.1152247,10.4288452 L22.1152247,31.6137695 L28.1084319,31.6137695 L28.1084319,13.3522072 C28.1084703,11.7376659 26.7996112,10.4288452 25.1850698,10.4288452 Z M6.39700582,10.4288452 L9.46685099,10.4288452 L9.46685099,31.6137695 L3.47364377,31.6137695 L3.47364377,13.3522072 C3.47364377,11.7376659 4.78246449,10.4288452 6.39700582,10.4288452 L6.39700582,10.4288452 Z" id="Shape" fill="#A7B9C6"></path>
                <path d="M21.1043644,0.0326158324 L9.76796158,0.0326158324 C8.15342026,0.0326158324 6.84456112,1.34147497 6.84456112,2.9560163 L6.84456112,31.1123923 L24.0277648,31.1123923 L24.0277648,2.95597788 C24.0277648,1.34143655 22.7189057,0.0326158324 21.1043644,0.0326158324 L21.1043644,0.0326158324 Z M13.5748324,24.5668673 L9.74717811,24.5668673 L9.74717811,20.739213 L13.5748324,20.739213 L13.5748324,24.5668673 Z M13.5748324,18.5340524 L9.74717811,18.5340524 L9.74717811,14.7064366 L13.5748324,14.7064366 L13.5748324,18.5340524 Z M13.5748324,13.1265471 L9.74717811,13.1265471 L9.74717811,9.2988929 L13.5748324,9.2988929 L13.5748324,13.1265471 Z M13.5748324,7.71904191 L9.74717811,7.71904191 L9.74717811,3.89138766 L13.5748324,3.89138766 L13.5748324,7.71904191 Z M21.1251094,24.5668673 L17.2974552,24.5668673 L17.2974552,20.739213 L21.1251094,20.739213 L21.1251094,24.5668673 Z M21.1251094,18.5340524 L17.2974552,18.5340524 L17.2974552,14.7064366 L21.1251094,14.7064366 L21.1251094,18.5340524 Z M21.1251094,13.1265471 L17.2974552,13.1265471 L17.2974552,9.2988929 L21.1251094,9.2988929 L21.1251094,13.1265471 Z M21.1251094,7.71904191 L17.2974552,7.71904191 L17.2974552,3.89138766 L21.1251094,3.89138766 L21.1251094,7.71904191 Z" id="Shape" fill="#667587"></path>
                <path d="M30.6220792,32.9681141 L1.17536088,32.9681141 C0.538871944,32.9681141 0.0228579744,32.4521001 0.0228579744,31.8156112 C0.0228579744,31.1791222 0.538871944,30.6631083 1.17536088,30.6631083 L30.6220792,30.6631083 C31.2585681,30.6631083 31.7745821,31.1791222 31.7745821,31.8156112 C31.7745821,32.4521001 31.2586065,32.9681141 30.6220792,32.9681141 Z" id="Shape" fill="#667587"></path>
            </g>
        </g>
    </g>
</svg>