<?xml version="1.0" encoding="UTF-8"?>
<svg width="22px" height="22px" viewBox="0 0 22 22" version="1.1" xmlns="http://www.w3.org/2000/svg" xmlns:xlink="http://www.w3.org/1999/xlink">
    <!-- Generator: Sketch 45.2 (43514) - http://www.bohemiancoding.com/sketch -->
    <title>任务</title>
    <desc>Created with Sketch.</desc>
    <defs></defs>
    <g id="Page-1" stroke="none" stroke-width="1" fill="none" fill-rule="evenodd">
        <g id="任务" fill-rule="nonzero" fill="#3DA8F4">
            <path d="M18.8117323,0.0230041903 L3.15491554,0.0230041903 C1.425218,0.0230041903 0.0230041903,1.425218 0.0230041903,3.15491554 L0.0230041903,18.8117323 C0.0230041903,20.5414298 1.425218,21.9436436 3.15491554,21.9436436 L18.8117323,21.9436436 C20.5414298,21.9436436 21.9436436,20.5414298 21.9436436,18.8117323 L21.9436436,3.15491554 C21.9436436,1.425218 20.5414298,0.0230041903 18.8117323,0.0230041903 Z M20.3791464,18.815975 C20.3794762,19.2310226 20.2145999,19.6291348 19.9209179,19.9224188 C19.6272359,20.2157028 19.2289005,20.3800391 18.8138537,20.3791464 L3.15853952,20.3791464 C2.73983763,20.3791464 2.3444706,20.2182772 2.04836522,19.9221718 C1.75225984,19.6260663 1.58750144,19.2346769 1.58750144,18.815975 L1.58750144,3.15641818 C1.58906099,2.28974804 2.29186806,1.58788996 3.15853952,1.58750144 L18.8138537,1.58750144 C19.2294938,1.58792313 19.6279364,1.75347035 19.9214984,2.0477121 C20.2150605,2.34195384 20.3796859,2.74077817 20.3791464,3.15641818 L20.3791464,18.815975 Z" id="Shape"></path>
            <path d="M17.8372361,7.0676613 L11.5734134,7.0676613 C11.1413894,7.0676613 10.7911648,7.41788594 10.7911648,7.84990992 C10.7911648,8.28193391 11.1413894,8.63215855 11.5734134,8.63215855 L17.8372361,8.63215855 C18.2692601,8.63215855 18.6194847,8.28193391 18.6194847,7.84990992 C18.6194847,7.41788594 18.2692601,7.0676613 17.8372361,7.0676613 L17.8372361,7.0676613 Z M17.8372361,13.3344893 L11.5734134,13.3344893 C11.1413894,13.3344893 10.7911648,13.6847139 10.7911648,14.1167379 C10.7911648,14.5487619 11.1413894,14.8989865 11.5734134,14.8989865 L17.8372361,14.8989865 C18.2692601,14.8989865 18.6194847,14.5487619 18.6194847,14.1167379 C18.6194847,13.6847139 18.2692601,13.3344893 17.8372361,13.3344893 Z M6.87559055,11.3776303 C5.36209414,11.3776303 4.13551061,12.6045674 4.13551061,14.1177102 C4.13551061,15.630853 5.3624477,16.8577901 6.87559055,16.8577901 C8.3887334,16.8577901 9.61567049,15.630853 9.61567047,14.1177102 C9.61567044,12.6045673 8.38908695,11.3776302 6.87559055,11.3776303 Z M7.70707223,14.9495454 C7.31033333,15.3459032 6.68886819,15.4068364 6.22270086,15.0950844 C5.75653354,14.7833324 5.57548048,14.1857108 5.7902551,13.6676634 C6.00502971,13.149616 6.5558224,12.8554066 7.10582509,12.9649433 C7.65582778,13.0744801 8.05187788,13.5572596 8.05179194,14.1180637 C8.05258034,14.4301729 7.92844712,14.7296204 7.70707223,14.9496338 L7.70707223,14.9495454 Z M8.67140357,5.73518696 L6.09254641,8.31395572 L5.07977751,7.30109845 C4.7742853,6.99560623 4.27898456,6.99560623 3.97349234,7.30109844 C3.66800012,7.60659065 3.66800012,8.10189139 3.97349233,8.40738361 L5.53940381,9.9733835 C5.68610464,10.1200893 5.88507662,10.2025081 6.09254641,10.2025081 C6.30001619,10.2025081 6.49898817,10.1200893 6.645689,9.9733835 L9.77760035,6.84147212 C10.079554,6.5354041 10.0778979,6.04301308 9.77389226,5.73898313 C9.4698866,5.43495318 8.97749571,5.43325774 8.67140357,5.73518696 L8.67140357,5.73518696 Z" id="Shape"></path>
        </g>
    </g>
</svg>