<?xml version="1.0" encoding="UTF-8"?>
<svg width="40px" height="40px" viewBox="0 0 40 40" version="1.1" xmlns="http://www.w3.org/2000/svg" xmlns:xlink="http://www.w3.org/1999/xlink">
    <!-- Generator: Sketch 45.2 (43514) - http://www.bohemiancoding.com/sketch -->
    <title>A阶段</title>
    <desc>Created with Sketch.</desc>
    <defs>
        <circle id="path-1" cx="20" cy="20" r="20"></circle>
    </defs>
    <g id="Page-1" stroke="none" stroke-width="1" fill="none" fill-rule="evenodd">
        <g id="Artboard-2" transform="translate(-1425.000000, -1105.000000)">
            <g id="A阶段" transform="translate(1425.000000, 1105.000000)">
                <g id="Group-3-Copy-2">
                    <g id="Oval">
                        <use fill="#FFFFFF" fill-rule="evenodd" xlink:href="#path-1"></use>
                        <circle stroke="#7FC25D" stroke-width="3" cx="20" cy="20" r="18.5"></circle>
                    </g>
                    <path d="M20,0 L20,20 L0,20 C0,8.954305 8.954305,0 20,0 Z" id="Combined-Shape" fill="#EEEEEE"></path>
                    <path d="M20,20 L20,40 L0,40 C0,28.954305 8.954305,20 20,20 Z" id="Combined-Shape-Copy" fill="#EEEEEE" transform="translate(10.000000, 30.000000) rotate(-90.000000) translate(-10.000000, -30.000000) "></path>
                    <path d="M40,20 L40,40 L20,40 C20,28.954305 28.954305,20 40,20 Z" id="Combined-Shape-Copy-2" fill="#EEEEEE" transform="translate(30.000000, 30.000000) rotate(180.000000) translate(-30.000000, -30.000000) "></path>
                    <circle id="Oval" fill="#FFFFFF" cx="20" cy="20" r="18"></circle>
                </g>
                <text id="A" font-family="PingFangSC-Regular, PingFang SC" font-size="18" font-weight="normal" letter-spacing="0.26000005" fill="#7FC25D">
                    <tspan x="14" y="26.5">A</tspan>
                </text>
            </g>
        </g>
    </g>
</svg>