<?xml version="1.0" encoding="UTF-8"?>
<svg width="22px" height="22px" viewBox="0 0 22 22" version="1.1" xmlns="http://www.w3.org/2000/svg" xmlns:xlink="http://www.w3.org/1999/xlink">
    <!-- Generator: Sketch 45.2 (43514) - http://www.bohemiancoding.com/sketch -->
    <title>刷新 (1)</title>
    <desc>Created with Sketch.</desc>
    <defs></defs>
    <g id="Page-1" stroke="none" stroke-width="1" fill="none" fill-rule="evenodd">
        <g id="刷新-(1)" fill-rule="nonzero" fill="#3DA8F4">
            <path d="M1.18520711,9.11538461 C1.03372783,9.11538461 0.957988178,9.11538461 0.80650887,9.03964496 C0.200591704,8.81242603 -0.102366879,8.20650886 0.049112429,7.60059173 C1.56390534,3.05621302 5.72958582,0.0266272249 10.5011834,0.0266272249 C15.2727811,0.0266272249 19.5142012,3.05621302 20.9532544,7.60059173 C21.1804734,8.2065089 20.8017752,8.81242606 20.195858,9.03964496 C19.5899408,9.26686389 18.9840236,8.88816568 18.7568047,8.28224852 C17.5449704,4.64674556 14.212426,2.22307693 10.4254438,2.22307693 C6.63846157,2.22307693 3.30591719,4.64674556 2.09408286,8.28224852 C2.09408286,8.81242603 1.639645,9.11538461 1.18520711,9.11538461 L1.18520711,9.11538461 Z" id="Shape"></path>
            <path d="M10.5769231,21.9911243 C5.80532544,21.9911243 1.56390531,18.9615385 0.124852083,14.4171598 C-0.102366846,13.8112426 0.276331358,13.2053254 0.882248524,12.9781065 C1.48816569,12.7508876 2.09408286,13.1295858 2.32130178,13.7355029 C3.53313612,17.3710059 6.86568049,19.7946745 10.6526627,19.7946746 C14.439645,19.7946746 17.7721893,17.3710059 18.9840237,13.7355029 C19.2112426,13.1295858 19.8171598,12.8266272 20.4230769,12.9781065 C21.0289941,13.2053254 21.3319527,13.8112426 21.1804734,14.4171598 C19.5899408,18.9615385 15.3485207,21.9911243 10.5769231,21.9911243 Z" id="Shape"></path>
            <path d="M2.32130178,14.0384615 L2.32130178,19.7189349 C2.32130178,20.3248521 1.79112427,20.8550296 1.18520711,20.8550296 C0.579289941,20.8550296 0.049112429,20.3248521 0.049112429,19.7189349 L0.049112429,14.0384615 C0.049112429,13.4325444 0.579289941,12.9023668 1.18520711,12.9023668 C1.86686393,12.9023668 2.32130178,13.4325444 2.32130178,14.0384615 Z" id="Shape"></path>
            <path d="M21.1047337,2.29881658 L21.1047337,7.97928993 C21.1047337,8.5852071 20.5745562,9.11538461 19.968639,9.11538461 C19.3627219,9.11538461 18.8325444,8.5852071 18.8325444,7.97928993 L18.8325444,2.29881658 C18.8325444,1.69289941 19.3627219,1.1627219 19.968639,1.1627219 C20.5745562,1.1627219 21.1047337,1.69289941 21.1047337,2.29881658 Z" id="Shape"></path>
        </g>
    </g>
</svg>