<?xml version="1.0" encoding="UTF-8"?>
<svg width="13px" height="13px" viewBox="0 0 13 13" version="1.1" xmlns="http://www.w3.org/2000/svg" xmlns:xlink="http://www.w3.org/1999/xlink">
    <!-- Generator: Sketch 45.2 (43514) - http://www.bohemiancoding.com/sketch -->
    <title>筛选未选中</title>
    <desc>Created with Sketch.</desc>
    <defs></defs>
    <g id="Page-1" stroke="none" stroke-width="1" fill="none" fill-rule="evenodd">
        <g id="Artboard-2" transform="translate(-2001.000000, -1017.000000)" fill-rule="nonzero" fill="#CED1D9">
            <g id="筛选未选中" transform="translate(2001.000000, 1017.000000)">
                <path d="M10.4366623,1.61059603 C9.14818543,2.83464901 7.47316557,4.50966888 6.44238411,5.54045033 L6.44238411,11.9184106 C6.44238411,12.6270728 5.92699338,13.2068874 5.54045033,12.6914967 C5.15390729,12.2405298 4.50966887,11.4030199 4.50966887,11.4030199 L4.50966887,5.4760265 C3.47888741,4.44524504 1.80386755,2.77022517 0.579814573,1.61059603 C-0.38654304,0.773086093 0.0644238443,0 0.515390729,0 L10.4366623,0 C10.952053,0 11.2741722,0.773086093 10.4366623,1.61059603 Z" id="Shape"></path>
                <path d="M9.01210216,6.89149793 L9.01210216,6.89149793 L9.01210216,6.89149793 C9.01210216,7.34001446 9.37569665,7.70360894 9.82421317,7.70360894 L12.0726572,7.70360894 L12.0726572,7.70360894 C12.5211737,7.70360894 12.8847682,7.34001446 12.8847682,6.89149793 L12.8847682,6.89149793 L12.8847682,6.89149793 C12.8847682,6.44298141 12.5211737,6.07938692 12.0726572,6.07938692 L9.82421317,6.07938692 L9.82421317,6.07938692 C9.37569665,6.07938692 9.01210216,6.44298141 9.01210216,6.89149793 Z M9.82421317,10.952053 L12.0726572,10.952053 L12.0726572,10.952053 C12.5211737,10.952053 12.8847682,10.5884585 12.8847682,10.139942 L12.8847682,10.139942 L12.8847682,10.139942 C12.8847682,9.69142545 12.5211737,9.32783096 12.0726572,9.32783096 L9.82421317,9.32783096 L9.82421317,9.32783096 C9.37569665,9.32783096 9.01210216,9.69142545 9.01210216,10.139942 L9.01210216,10.139942 L9.01210216,10.139942 C9.01210216,10.5884585 9.37569665,10.952053 9.82421317,10.952053 Z" id="Shape"></path>
            </g>
        </g>
    </g>
</svg>