<?xml version="1.0" encoding="UTF-8"?>
<svg width="40px" height="40px" viewBox="0 0 40 40" version="1.1" xmlns="http://www.w3.org/2000/svg" xmlns:xlink="http://www.w3.org/1999/xlink">
    <!-- Generator: Sketch 45.2 (43514) - http://www.bohemiancoding.com/sketch -->
    <title>输单</title>
    <desc>Created with Sketch.</desc>
    <defs>
        <circle id="path-1" cx="20" cy="20" r="20"></circle>
    </defs>
    <g id="Page-1" stroke="none" stroke-width="1" fill="none" fill-rule="evenodd">
        <g id="Artboard-2" transform="translate(-1425.000000, -1375.000000)">
            <g id="输单" transform="translate(1425.000000, 1375.000000)">
                <g id="Group-7">
                    <g id="Group-3-Copy-5">
                        <g id="Oval">
                            <use fill="#FFFFFF" fill-rule="evenodd" xlink:href="#path-1"></use>
                            <circle stroke="#F17576" stroke-width="3" cx="20" cy="20" r="18.5"></circle>
                        </g>
                        <circle id="Oval" fill="#FFFFFF" cx="20" cy="20" r="18"></circle>
                    </g>
                </g>
                <g id="Group-8" transform="translate(11.000000, 11.000000)" fill-rule="nonzero" fill="#F17576">
                    <path d="M16.7368436,3.5254362 L3.5254362,16.7368436 L3.52543116,16.7368386 C3.13490884,17.1273609 2.50174774,17.1273631 2.11122264,16.7368436 L0.707111822,15.3327629 L0.707107752,15.332767 C0.316580677,14.9422455 0.316576164,14.3090805 0.707097672,13.9185534 C0.707099028,13.918552 0.707100384,13.9185507 0.707101741,13.9185493 L13.9185152,0.707107752 L13.9185142,0.707106781 C14.3090379,0.316581953 14.9422029,0.316581083 15.3327278,0.707104839 C15.3327281,0.707105162 15.3327284,0.707105486 15.3327287,0.70710581 L16.7368436,2.11122264 L16.7368436,2.11122264 C17.1273679,2.50174693 17.1273679,3.13491191 16.7368436,3.5254362 Z" id="Shape"></path>
                    <path d="M13.918475,16.7368426 L0.70710581,3.52543717 L0.707106781,3.5254362 C0.316583405,3.13491175 0.31658384,2.50174752 0.707107752,2.11122361 L2.11122264,0.707106781 L2.11122264,0.707106781 C2.50174693,0.316582489 3.13491191,0.316582489 3.5254362,0.707106781 L16.7368436,13.9185142 L16.7368486,13.9185092 C17.1273729,14.3090334 17.1273729,14.9421984 16.7368486,15.3327227 C16.736847,15.3327244 16.7368453,15.3327261 16.7368436,15.3327278 L15.3326926,16.7368486 L15.3326885,16.7368446 C14.9421631,17.1273645 14.3090012,17.1273618 13.9184791,16.7368386 Z" id="Shape"></path>
                </g>
            </g>
        </g>
    </g>
</svg>