<?xml version="1.0" encoding="UTF-8"?>
<svg width="140px" height="108px" viewBox="0 0 140 108" version="1.1" xmlns="http://www.w3.org/2000/svg" xmlns:xlink="http://www.w3.org/1999/xlink">
    <!-- Generator: Sketch 45.2 (43514) - http://www.bohemiancoding.com/sketch -->
    <title>空页面</title>
    <desc>Created with Sketch.</desc>
    <defs></defs>
    <g id="Page-1" stroke="none" stroke-width="1" fill="none" fill-rule="evenodd">
        <g id="Artboard-2" transform="translate(-2243.000000, -1482.000000)" fill-rule="nonzero">
            <g id="空页面" transform="translate(2243.000000, 1482.600000)">
                <path d="M129.728274,59.7936279 C129.728274,60.7105543 130.280691,61.5371681 131.127874,61.8879313 C131.975057,62.2386944 132.95012,62.0445103 133.598287,61.3959476 C134.246454,60.747385 134.440043,59.7722038 134.088763,58.925235 C133.737482,58.0782662 132.910532,57.5263537 131.993605,57.5269132 C131.596693,57.5110242 131.203564,57.6094265 130.860939,57.8104253 C130.14317,58.1700018 129.728274,58.9486231 129.728274,59.7936279" id="Shape" fill="#D7D7D7"></path>
                <path d="M1.69969032,41.7415064 L0.00414896808,41.7415064 C0.0167997608,42.674929 0.770416607,43.4285458 1.70383929,43.4411966 C2.62329842,43.4149604 3.35504978,42.6620312 3.35504978,41.7421978 C3.35504978,40.8223644 2.62329842,40.0694352 1.70383929,40.043199 C1.40798278,40.0464653 1.11706324,40.1194321 0.854685553,40.2561789 C0.280746147,40.5383081 0.00414886414,41.1053325 0.00414896808,41.7415064" id="Shape" fill="#E4E4E4"></path>
                <path d="M120.517584,40.254796 C120.517584,38.8228195 119.654982,37.5318447 118.332009,36.983851 C117.009035,36.4358573 115.486226,36.7387627 114.473666,37.751323 C113.461106,38.7638832 113.1582,40.2866918 113.706194,41.6096656 C114.254188,42.9326393 115.545163,43.7952411 116.977139,43.7952411 C118.898231,43.7149455 120.437289,42.1758878 120.517584,40.254796 L120.517584,40.254796 Z M111.382959,40.254796 C111.382959,37.2122259 113.931803,34.660616 116.977139,34.660616 C120.022475,34.660616 122.571319,37.2094599 122.571319,40.254796 C122.571319,43.300132 120.022475,45.8489759 116.977139,45.8489759 C113.931803,45.8489759 111.382959,43.2295997 111.382959,40.254796 Z" id="Shape" fill="#D9D9D9"></path>
                <path d="M120.799713,3.64437991 C120.799713,2.21240346 119.937112,0.921428614 118.614138,0.373434932 C117.291164,-0.174558749 115.768356,0.128346711 114.755795,1.14090697 C113.743235,2.15346723 113.44033,3.67627587 113.988323,4.99924959 C114.536317,6.32222332 115.827292,7.18482509 117.259268,7.18482505 C119.170555,7.18482505 120.729181,5.62758239 120.799713,3.64437991 Z M115.702026,3.64437991 C115.70656,2.825178 116.369534,2.16220394 117.188736,2.1576695 C117.71998,2.15752904 118.21093,2.44086371 118.476592,2.90091118 C118.742255,3.36095865 118.742255,3.92780106 118.476592,4.38784854 C118.21093,4.84789601 117.71998,5.13123068 117.188736,5.13109022 C116.369534,5.12655577 115.70656,4.46358178 115.702026,3.64437991 L115.702026,3.64437991 Z M134.82043,29.3513311 L133.120739,29.3513311 C132.715995,29.3512085 132.341944,29.5670666 132.139536,29.917565 C131.937128,30.2680634 131.937128,30.6999306 132.139536,31.050429 C132.341944,31.4009274 132.715995,31.6167854 133.120739,31.6166628 L134.82043,31.6166628 L134.82043,33.3163531 C134.82043,33.9419072 135.327541,34.449019 135.953095,34.449019 C136.57865,34.449019 137.085761,33.9419072 137.085761,33.3163531 L137.085761,31.6166628 L138.785452,31.6166628 C139.410872,31.6164734 139.917774,31.1094171 139.917774,30.483997 C139.917774,29.8585769 139.410872,29.3515206 138.785452,29.3513311 L137.085761,29.3513311 L137.085761,27.6516408 C137.085761,27.0260867 136.57865,26.5189749 135.953095,26.5189749 C135.327541,26.5189749 134.82043,27.0260867 134.82043,27.6516408 L134.82043,29.3513311 Z" id="Shape" fill="#E3E3E3"></path>
                <path d="M11.8259167,77.4294705 L8.99356061,77.4294705 C8.48858429,77.4383318 8.08135296,77.8455631 8.07249167,78.3505395 C8.07249167,78.9161809 8.42653618,79.2702254 8.99356061,79.2702253 L11.8259167,79.2702253 L11.8259167,82.1025816 C11.8325428,82.6086506 12.2395825,83.0181386 12.7456027,83.0277995 C13.3126271,83.0277995 13.6666716,82.673755 13.6666716,82.1067305 L13.6666716,79.2702253 L16.4990278,79.2702253 C17.0034778,79.261387 17.4105003,78.8549757 17.4200968,78.3505395 C17.4200968,77.783515 17.0660523,77.4294705 16.4990278,77.4294705 L13.6666716,77.4294705 L13.6666716,74.5915824 C13.6578104,74.0866061 13.250579,73.6793747 12.7456027,73.6705135 C12.1785783,73.6705135 11.8245338,74.024558 11.8245338,74.5915824 L11.8259167,77.4294705 Z" id="Shape" fill="#D8D8D8"></path>
                <path d="M45.3176985,102.212587 C45.3176985,104.620366 55.0898804,106.531653 67.0554787,106.531653 C79.0210771,106.531654 88.791876,104.620366 88.7918761,102.212587 C88.7918762,99.8048073 79.0196943,97.8921372 67.0540958,97.8921373 C55.0884973,97.8921374 45.3163155,99.8753398 45.3163155,102.212587 L45.3176985,102.212587 Z" id="Shape" fill="#F1F1F1"></path>
                <path d="M30.9429378,23.0490621 L22.8718291,23.0490621 C22.246275,23.0490621 21.7391632,22.5419503 21.7391632,21.9163962 C21.7391632,21.2908421 22.246275,20.7837303 22.8718291,20.7837303 L30.9443208,20.7837303 C31.5698749,20.7837303 32.0769867,21.2908421 32.0769867,21.9163962 C32.0769867,22.5419503 31.5698749,23.0490621 30.9443208,23.0490621 L30.9429378,23.0490621 Z M41.4232087,9.80835022 C41.1216729,9.81210107 40.8313904,9.69397183 40.6181559,9.48073728 C40.4049213,9.26750272 40.2867921,8.97722029 40.2905429,8.67568442 L40.2905429,1.23936647 C40.2907324,0.61394639 40.7977887,0.107043687 41.4232088,0.107043687 C42.0486289,0.107043687 42.5556852,0.61394639 42.5558746,1.23936647 L42.5558746,8.67430137 C42.4853423,9.38239039 41.9902332,9.80696726 41.4232087,9.80696726 L41.4232087,9.80835022 Z M35.3380686,15.119018 C35.0423348,15.1068649 34.7630013,14.97985 34.5594472,14.7649735 L28.1866459,8.32163991 C27.8547094,8.05707394 27.7033991,7.62592448 27.7972029,7.21194646 C27.8910067,6.79796844 28.2133857,6.47415288 28.6269425,6.37850924 C29.0404993,6.2828656 29.4723173,6.4322574 29.7383566,6.76301419 L36.1816903,13.2063479 C36.6097477,13.6377192 36.6097477,14.3336022 36.1816903,14.7649735 C35.905093,14.9779534 35.6146659,15.119018 35.3311536,15.119018 L35.3380686,15.119018 Z" id="Shape" fill="#D9D9D9"></path>
                <path d="M95.2379758,84.3692963 C95.224339,87.5716005 92.631737,90.1642025 89.4294328,90.1778391 L43.6180082,90.1778391 C40.4157041,90.1642024 37.823102,87.5716004 37.8094653,84.3692963 L37.8094653,30.483997 C37.823102,27.2816929 40.415704,24.6890908 43.6180082,24.6754541 L89.4321988,24.6754541 C92.634503,24.6890908 95.227105,27.2816929 95.2407417,30.483997 L95.2379758,84.3692963 Z" id="Shape" fill="#E4E4E4"></path>
                <path d="M89.3616665,91.3091221 L43.5474759,91.3091221 C39.7172421,91.3030303 36.613742,88.1995301 36.6076501,84.3692963 L36.6076501,30.483997 C36.6145031,26.6543033 39.7177809,23.5516439 43.5474759,23.5455542 L89.3616665,23.5455542 C93.1908214,23.5524049 96.2932586,26.6548421 96.3001093,30.483997 L96.3001093,84.3692963 C96.3001093,88.1213384 93.1842409,91.3091221 89.3616665,91.3091221 L89.3616665,91.3091221 Z M43.5474759,25.7389707 C42.3077522,25.7378685 41.1184877,26.2298588 40.2418703,27.1064761 C39.3652529,27.9830935 38.8732626,29.1723581 38.8743648,30.4120817 L38.8743648,84.2987639 C38.8725275,85.5389666 39.3641932,86.7289425 40.2408904,87.6061586 C41.1175876,88.4833747 42.3072724,88.9757445 43.5474759,88.974641 L89.3616665,88.974641 C90.6013901,88.9757431 91.7906547,88.4837529 92.667272,87.6071355 C93.5438894,86.7305182 94.0358796,85.5412536 94.0347775,84.30153 L94.0347775,30.483997 C94.0358796,29.2442734 93.5438894,28.0550088 92.667272,27.1783915 C91.7906547,26.3017741 90.6013901,25.8097839 89.3616665,25.810886 C89.3616665,25.7403536 43.5474759,25.7403536 43.5474759,25.7403536 L43.5474759,25.7389707 Z" id="Shape" fill="#D9D9D9"></path>
                <path d="M103.381,76.7213815 C103.367363,79.9236856 100.774761,82.5162877 97.5724567,82.5299243 L51.6904998,82.5299243 C48.4878825,82.5170394 45.8948418,79.9239989 45.8819569,76.7213815 L45.8819569,22.9066145 C45.8948418,19.7039971 48.4878825,17.1109565 51.6904998,17.0980716 L97.5046904,17.0980716 C100.706995,17.1117083 103.299597,19.7043103 103.313233,22.9066145 L103.313233,76.7213815 L103.381,76.7213815 Z" id="Shape" fill="#FFFFFF"></path>
                <path d="M97.5046904,17.0303053 L51.6904998,17.0303053 C48.4878825,17.0431902 45.8948418,19.6362308 45.8819569,22.8388481 L45.8819569,28.1495159 C45.8948418,24.9468986 48.4878825,22.353858 51.6904998,22.3409731 L97.5046904,22.3409731 C100.707308,22.353858 103.300348,24.9468986 103.313233,28.1495159 L103.313233,22.8388481 C103.383766,19.6579794 100.764389,17.0303052 97.5046904,17.0303053 L97.5046904,17.0303053 Z" id="Shape" fill="#F3F3F3"></path>
                <path d="M97.5046904,83.7317395 L51.6904998,83.7317395 C47.860266,83.7256477 44.7567659,80.6221475 44.7506741,76.7919137 L44.7506741,22.9066145 C44.7567659,19.0763807 47.860266,15.9728805 51.6904998,15.9667887 L97.5046904,15.9667887 C101.334924,15.9728805 104.438424,19.0763807 104.444516,22.9066145 L104.444516,76.7919137 C104.444516,80.5453389 101.328648,83.7317395 97.5046904,83.7317395 L97.5046904,83.7317395 Z M51.6904998,18.1657371 C50.4507762,18.164635 49.2615116,18.6566252 48.3848943,19.5332426 C47.5082769,20.4098599 47.0162867,21.5991245 47.0173888,22.8388481 L47.0173888,76.7213815 C47.0162867,77.9611052 47.5082769,79.1503697 48.3848943,80.026987 C49.2615116,80.9036044 50.4507762,81.3955947 51.6904998,81.3944925 L97.5046904,81.3944925 C98.7444141,81.3955947 99.9336786,80.9036044 100.810296,80.0269871 C101.686913,79.1503697 102.178904,77.9611052 102.177802,76.7213815 L102.177802,22.9066145 C102.178904,21.6668908 101.686913,20.4776262 100.810296,19.6010089 C99.9336786,18.7243915 98.7444141,18.2324013 97.5046904,18.2335034 L51.6904998,18.1657371 Z" id="Shape" fill="#D7D7D7"></path>
                <path d="M92.972644,30.8380415 L54.525622,30.8380415 C53.9213058,30.8528749 53.416954,30.3799297 53.3929561,29.775908 C53.4096327,29.1573933 53.9071072,28.6599188 54.525622,28.6432421 L92.972644,28.6432421 C93.2741799,28.6394912 93.5644623,28.7576205 93.7776969,28.970855 C93.9909315,29.1840896 94.1090607,29.4743721 94.1053099,29.775908 C94.1053099,30.4134648 93.5382854,30.8380415 92.972644,30.8380415 L92.972644,30.8380415 Z M79.5189522,72.6152948 L54.6653036,72.6152948 C54.2603123,72.6154174 53.8860324,72.3994276 53.6835013,72.0487152 C53.4809703,71.6980029 53.4809703,71.2658721 53.6835013,70.9151597 C53.8860324,70.5644474 54.2603123,70.3484575 54.6653036,70.3485801 L79.5894846,70.3485801 C79.8912635,70.3448214 80.1817619,70.4631391 80.3950381,70.6766757 C80.6083143,70.8902124 80.7262774,71.1808549 80.7221504,71.482629 C80.5838518,72.1201858 80.1565089,72.6152949 79.5189522,72.6152948 L79.5189522,72.6152948 Z" id="Shape" fill="#F3F3F3"></path>
                <path d="M55.5144572,48.2567553 C55.5144572,49.3910017 56.4339456,50.3104901 57.5681921,50.3104901 C58.7024385,50.3104901 59.6219269,49.3910017 59.6219269,48.2567553 C59.6219269,47.1225088 58.7024385,46.2030204 57.5681921,46.2030204 C56.4342618,46.2037832 55.51522,47.122825 55.5144572,48.2567553 L55.5144572,48.2567553 Z M89.6437957,48.0382434 C89.6409965,48.869651 90.139744,49.6207247 90.9071163,49.9407029 C91.6744887,50.2606811 92.5590774,50.0864296 93.1477676,49.4993263 C93.7364577,48.912223 93.9130961,48.0281078 93.5951903,47.2598746 C93.2772845,46.4916414 92.5275597,45.9908684 91.6961476,45.9914236 C90.5758179,46.0175848 89.6729807,46.9179885 89.6437957,48.0382434 L89.6437957,48.0382434 Z M82.7758852,59.5861799 L66.2063251,59.5861799 C65.580771,59.5861799 65.0736592,59.0790681 65.0736592,58.453514 C65.0736592,57.8279599 65.580771,57.3208481 66.2063251,57.3208481 L82.7758852,57.3208481 C83.4014393,57.3208481 83.9085511,57.8279599 83.9085511,58.453514 C83.9085511,59.0790681 83.4014393,59.5861799 82.7758852,59.5861799 L82.7758852,59.5861799 Z" id="Shape" fill="#D5D5D5"></path>
            </g>
        </g>
    </g>
</svg>