<?xml version="1.0" encoding="UTF-8"?>
<svg width="12px" height="12px" viewBox="0 0 12 12" version="1.1" xmlns="http://www.w3.org/2000/svg" xmlns:xlink="http://www.w3.org/1999/xlink">
    <!-- Generator: Sketch 45.2 (43514) - http://www.bohemiancoding.com/sketch -->
    <title>排序未选中</title>
    <desc>Created with Sketch.</desc>
    <defs></defs>
    <g id="Page-1" stroke="none" stroke-width="1" fill="none" fill-rule="evenodd">
        <g id="Artboard-2" transform="translate(-1983.000000, -1017.000000)" fill-rule="nonzero" fill="#CED1D9">
            <g id="排序未选中" transform="translate(1983.000000, 1017.000000)">
                <path d="M10.9743374,2 L6.99486748,2 C6.44769037,2 6,2.44769037 6,2.99486748 C6,3.5420446 6.44769037,3.98973496 6.99486748,3.98973496 L10.9743374,3.98973496 C11.5215145,3.98973496 11.9692049,3.5420446 11.9692049,2.99486748 C11.9692049,2.44769037 11.5215145,2 10.9743374,2 Z M8.97433741,4.98460244 L6.99486748,4.98460244 C6.44769037,4.98460244 6,5.43229281 6,5.97946993 C6,6.52664704 6.44769037,6.97433741 6.99486748,6.97433741 L8.97433741,6.97433741 C9.52151452,6.97433741 9.96920489,6.52664704 9.96920489,5.97946993 C9.96920489,5.43229281 9.52151452,4.98460244 8.97433741,4.98460244 Z M7.97433741,7.96920489 L6.99486748,7.96920489 C6.44769037,7.96920489 6,8.41689526 6,8.96407237 C6,9.51124948 6.44769037,9.95893985 6.99486748,9.95893985 L7.97433741,9.95893985 C8.52151452,9.95893985 8.96920489,9.51124948 8.96920489,8.96407237 C8.96920489,8.41689526 8.52151452,7.96920489 7.97433741,7.96920489 Z" id="Shape"></path>
                <path d="M2.37139972,11.4527888 L2.37139972,4.33287017 L0,4.33287017 L3.62952969,0.686636844 L3.62952969,0.686636844 C3.78538037,0.530068915 4.03864569,0.52948747 4.19521362,0.685338151 C4.27062575,0.760404809 4.313021,0.862424616 4.313021,0.968829464 L4.313021,11.4527735 L4.313021,11.4527735 C4.313021,11.9889386 3.87837551,12.4235875 3.34221036,12.4235918 L3.34221036,12.4235918 L3.34221036,12.4235918 C2.80605069,12.423596 2.37140396,11.9889562 2.37139972,11.4527965 C2.37139972,11.452794 2.37139972,11.4527914 2.37139972,11.4527888 Z" id="Shape" transform="translate(2.156518, 6.211800) scale(-1, 1) rotate(180.000000) translate(-2.156518, -6.211800) "></path>
            </g>
        </g>
    </g>
</svg>