<?xml version="1.0" encoding="UTF-8"?>
<svg width="26px" height="30px" viewBox="0 0 26 30" version="1.1" xmlns="http://www.w3.org/2000/svg" xmlns:xlink="http://www.w3.org/1999/xlink">
    <!-- Generator: Sketch 45.2 (43514) - http://www.bohemiancoding.com/sketch -->
    <title>上传附件</title>
    <desc>Created with Sketch.</desc>
    <defs></defs>
    <g id="Page-1" stroke="none" stroke-width="1" fill="none" fill-rule="evenodd">
        <g id="Artboard-2" transform="translate(-2055.000000, -1076.000000)" fill-rule="nonzero">
            <g id="上传附件" transform="translate(2055.000000, 1076.000000)">
                <path d="M1.11173007,0 C0.542299512,0 0.00283895508,0.569430557 0.00283895508,1.13886114 L0.00283895508,28.8611389 C0.00283895508,29.4305694 0.572269512,30 1.1417001,30 L24.7580837,30 C25.3275143,30 25.8969449,29.4305694 25.8969449,28.8611389 L25.8969449,6.56343656 L19.2735682,0 L1.11173007,0 Z" id="Shape" fill="#8199AF"></path>
                <path d="M19.2735682,0 L19.2735682,5.39460539 C19.2735682,5.96403595 19.8429988,6.56343656 20.4423994,6.56343656 L25.8370048,6.56343656 L19.2735682,0 Z" id="Shape" fill="#BBD1E4"></path>
                <path d="M10.3424993,23.976024 C7.79504675,23.976024 5.72711467,21.9080919 5.72711467,19.3606394 C5.72711467,18.1618382 6.20663514,17.022977 7.04579599,16.1538461 L8.00483695,17.1128871 C7.40543637,17.7122877 7.07576602,18.5214785 7.07576604,19.3606394 C7.07576604,21.1588412 8.54429751,22.6273726 10.3125293,22.6273726 C11.2715702,22.6273726 12.1706711,22.2077922 12.7700717,21.4585414 L17.5652765,16.6933067 C18.2845573,16.0939061 18.7041377,15.1948052 18.7041376,14.2357642 C18.7041376,12.4375625 17.2356062,10.969031 15.4673744,10.969031 C14.7780637,10.969031 14.1486931,11.1788212 13.5792625,11.5984016 L13.3994423,11.7482517 C13.2795622,11.8681319 13.1297121,11.9280719 12.9798619,11.9280719 C12.5902516,11.9280719 12.2905512,11.6283716 12.2905513,11.2387613 C12.2905513,11.0589411 12.3804613,10.8791209 12.5003415,10.7592408 L12.6202216,10.6393606 C13.4294124,9.98001996 14.4483934,9.62037961 15.4673744,9.62037961 C18.044797,9.59040958 20.1127291,11.6583417 20.1127291,14.2057942 C20.1127291,15.4945055 19.5732686,16.6933067 18.6142276,17.5924076 L18.3744673,17.8321678 L13.9688729,22.2377622 L13.7590827,22.4775225 C12.8300118,23.4365634 11.6312106,23.976024 10.3424993,23.976024 L10.3424993,23.976024 Z M10.4024394,19.96004 C10.012829,19.96004 9.71312865,19.6603397 9.71312868,19.2707293 C9.71312868,19.0609391 9.80303877,18.9110889 9.89294886,18.8211788 L10.012829,18.6713287 L11.8709708,16.8131868 L11.9009408,16.7832168 C12.080761,16.5434566 12.1407011,16.3036963 12.1407011,16.0639361 C12.1407011,15.3446553 11.5712705,14.7752248 10.8519898,14.7752248 C10.5522895,14.7752248 10.2525892,14.8951049 10.012829,15.1048951 L8.12471707,16.993007 L7.16567613,16.033966 L9.08375804,14.1458542 L9.1436981,14.0859141 C9.65318859,13.6663337 10.2525892,13.4265734 10.8819598,13.4265734 C12.3504913,13.4265734 13.5193225,14.6253746 13.5193225,16.0939061 L13.5193225,16.2137862 C13.5193225,16.5734266 13.5492925,17.0829171 13.1896521,17.4725275 L10.9119299,19.7502497 L10.8519898,19.7802198 C10.7620797,19.8701299 10.6122296,19.96004 10.4024394,19.96004 L10.4024394,19.96004 Z" id="Shape" fill="#FFFFFF"></path>
            </g>
        </g>
    </g>
</svg>