<?xml version="1.0" encoding="UTF-8"?>
<svg width="40px" height="30px" viewBox="0 0 40 30" version="1.1" xmlns="http://www.w3.org/2000/svg" xmlns:xlink="http://www.w3.org/1999/xlink">
    <!-- Generator: Sketch 45.2 (43514) - http://www.bohemiancoding.com/sketch -->
    <title>上传图片</title>
    <desc>Created with Sketch.</desc>
    <defs></defs>
    <g id="Page-1" stroke="none" stroke-width="1" fill="none" fill-rule="evenodd">
        <g id="Artboard-2" transform="translate(-1995.000000, -1076.000000)" fill-rule="nonzero" fill="#8199AF">
            <g id="上传图片" transform="translate(1995.000000, 1076.000000)">
                <path d="M12.1890251,15.768599 C12.1890251,18.3814305 13.5829541,20.7957865 15.8457326,22.1022023 C18.1085111,23.4086181 20.8963692,23.4086181 23.1591477,22.1022023 C25.4219263,20.7957865 26.8158553,18.3814305 26.8158552,15.768599 C26.8158553,13.1557674 25.4219263,10.7414114 23.1591477,9.43499565 C20.8963692,8.12857985 18.1085111,8.12857985 15.8457326,9.43499565 C13.5829541,10.7414114 12.1890251,13.1557674 12.1890251,15.768599 Z" id="Shape"></path>
                <path d="M35.9576241,5.48506133 L30.1678372,5.48506133 L27.2424711,1.46268303 C26.6330199,0.670396384 25.3531723,0 24.3171051,0 L14.6268301,0 C13.590763,0 12.3109154,0.670396384 11.7014641,1.46268303 L8.83704321,5.48506133 L3.04725627,5.48506133 C1.34079277,5.48506133 0,6.8258541 0,8.5323176 L0,26.8158553 C0,28.5223188 1.34079277,29.8631115 3.04725627,29.8631115 L35.9576241,29.8631115 C37.6640876,29.8631115 39.0048804,28.5223188 39.0048804,26.8158553 L39.0048804,8.5323176 C39.0048804,6.8258541 37.6640876,5.48506133 35.9576241,5.48506133 Z M19.5024402,24.9875015 C14.4439948,24.9875015 10.3606714,20.9041781 10.3606714,15.8457327 C10.3606714,10.7872872 14.4439948,6.70396384 19.5024402,6.70396384 C24.5608856,6.70396384 28.644209,10.7872873 28.644209,15.8457327 C28.6442091,20.904178 24.5608856,24.9875015 19.5024402,24.9875015 Z" id="Shape"></path>
            </g>
        </g>
    </g>
</svg>