<?xml version="1.0" encoding="UTF-8"?>
<svg width="20px" height="17px" viewBox="0 0 20 17" version="1.1" xmlns="http://www.w3.org/2000/svg" xmlns:xlink="http://www.w3.org/1999/xlink">
    <!-- Generator: Sketch 45.2 (43514) - http://www.bohemiancoding.com/sketch -->
    <title>邮件 (4)</title>
    <desc>Created with Sketch.</desc>
    <defs></defs>
    <g id="Page-1" stroke="none" stroke-width="1" fill="none" fill-rule="evenodd">
        <g id="Artboard-2" transform="translate(-2143.000000, -1076.000000)" fill-rule="nonzero" fill="#8199AF">
            <g id="邮件-(4)" transform="translate(2143.000000, 1076.000000)">
                <path d="M12.6210043,8.73351489 C12.6210043,8.73351489 12.7335716,8.73351489 12.6210043,8.73351489 L16.637844,12.639966 C16.8608,12.862922 17.3074383,12.862922 17.5303943,12.639966 C17.7540766,12.4155574 17.7540766,11.9696454 17.5303943,11.7466894 C17.5303943,11.7466894 13.6253957,7.95353191 13.5142809,7.84241702 C13.8483518,7.50761986 19.4273362,1.5938383 19.4273362,1.5938383 C19.7635858,2.15231773 19.9865418,2.71007092 19.9865418,3.37893901 L19.9865418,12.8636482 C19.9865418,14.7598638 18.5362383,16.2108936 16.6392965,16.2108936 L3.36142979,16.2108936 C1.46448794,16.2108936 0.0141843972,14.7598638 0.0141843972,12.8636482 L0.0141843972,3.37821277 C0.0141843972,2.70934468 0.237140426,2.15231773 0.460096454,1.70422695 C0.460096454,1.70422695 6.26131064,7.50616738 6.70867518,7.84096454 L6.59756028,7.95280567 L2.91479149,11.7459631 C2.69183546,11.9696454 2.69183546,12.4155574 2.91479149,12.6392397 C3.13847376,12.8621957 3.58438582,12.8621957 3.80806809,12.6392397 L7.60122553,8.73278865 C8.82857305,9.84902128 9.49744113,10.4067745 10.1677617,10.4067745 C10.8366298,10.4067745 11.5054979,9.73790638 12.6210043,8.73351489 L12.6210043,8.73351489 Z" id="Shape"></path>
                <path d="M1.35264681,0.701287943 C1.91112624,0.254649645 2.57999433,0.031693617 3.36142979,0.031693617 L16.6385702,0.031693617 C17.4192794,0.031693617 18.0896,0.255375887 18.6473532,0.701287943 C18.6473532,0.701287943 10.9477447,8.84535603 10.2796028,8.84535603 C9.38705248,8.84535603 1.35264681,0.701287943 1.35264681,0.701287943 L1.35264681,0.701287943 Z" id="Shape"></path>
            </g>
        </g>
    </g>
</svg>