<?xml version="1.0" encoding="UTF-8"?>
<svg width="17px" height="20px" viewBox="0 0 17 20" version="1.1" xmlns="http://www.w3.org/2000/svg" xmlns:xlink="http://www.w3.org/1999/xlink">
    <!-- Generator: Sketch 45.2 (43514) - http://www.bohemiancoding.com/sketch -->
    <title>电话-</title>
    <desc>Created with Sketch.</desc>
    <defs></defs>
    <g id="Page-1" stroke="none" stroke-width="1" fill="none" fill-rule="evenodd">
        <g id="Artboard-2" transform="translate(-2106.000000, -1076.000000)" fill-rule="nonzero" fill="#8199AF">
            <g id="电话-" transform="translate(2106.000000, 1076.000000)">
                <path d="M11.1418345,19.987472 C8.15230425,19.987472 4.57861298,17.2384787 2.24196868,13.1493512 C-0.793378076,7.84608501 -0.724653244,2.31373602 2.39087248,0.549798658 C3.06666667,0.171812081 3.83409396,0 4.68170022,0.0343624161 C4.73897092,0.0229082774 4.80769575,0.0229082774 4.87642058,0.0114541387 L4.910783,0.0114541387 C6.28527964,0.0114541387 7.53378076,1.71812081 7.83158837,3.97458613 C8.02630872,5.45217002 7.73995526,6.78085011 7.08706935,7.53682327 C6.73199105,7.93771812 6.29673378,8.15534676 5.80420582,8.16680089 C5.80420582,8.16680089 5.74693512,8.17825503 5.73548098,8.20116331 C5.71257271,8.23552573 5.67821029,8.33861298 5.72402685,8.55624161 C6.01038031,9.25494407 6.34255034,9.94219239 6.73199105,10.6065324 C7.14434004,11.3281432 7.61395973,12.0268456 8.11794183,12.6682774 C8.11794183,12.6797315 8.12939597,12.6797315 8.12939597,12.6911857 C8.22102908,12.7828188 8.27829978,12.7828188 8.30120805,12.7828188 C8.39284116,12.7828188 8.51883669,12.7255481 8.58756152,12.6797315 C8.91973154,12.2330201 9.45807606,11.9924832 10.1338702,11.9924832 C11.0387472,11.9924832 12.1154362,12.4277405 13.089038,13.1837136 C14.8758837,14.5696644 15.6089485,16.4481432 14.9560626,17.6279195 C14.8987919,17.7310067 14.8873378,17.7424609 14.8300671,17.8455481 C14.3948098,18.498434 13.8908277,19.0711409 13.2264877,19.4376734 C12.5965101,19.81566 11.8978076,19.987472 11.1418345,19.987472 L11.1418345,19.987472 Z" id="Shape"></path>
                <path d="M10.110962,13.1378971 C9.89333333,13.1378971 9.59552573,13.1837136 9.4695302,13.3898881 C9.43516779,13.4357047 9.40080537,13.4815213 9.35498881,13.5158837 C9.30917226,13.5617002 8.86246085,13.9282327 8.27829978,13.9282327 C7.91176734,13.9282327 7.57959732,13.790783 7.31615213,13.5158837 C7.28178971,13.4929754 7.25888143,13.458613 7.23597315,13.4357047 C6.6861745,12.7370022 6.17073826,11.9695749 5.72402685,11.1792394 C5.31167785,10.4576286 4.94514541,9.70165548 4.63588367,8.94568233 C4.62442953,8.91131991 4.61297539,8.87695749 4.60152125,8.85404922 C4.48697987,8.29279642 4.56715884,7.84608501 4.84205817,7.51391499 C5.19713647,7.07865772 5.73548098,7.05574944 5.78129754,7.05574944 C5.83856823,7.05574944 6.01038031,7.05574944 6.21655481,6.81521253 C6.65181208,6.31123043 6.84653244,5.25744966 6.69762864,4.12348993 C6.48,2.41682327 5.57512304,1.13395973 4.89932886,1.13395973 C4.87642058,1.13395973 4.84205817,1.13395973 4.81914989,1.14541387 C4.77333333,1.15686801 4.72751678,1.15686801 4.68170022,1.15686801 C4.04026846,1.12250559 3.45610738,1.24850112 2.95212528,1.52340045 C0.47803132,2.92080537 0.604026846,7.99498881 3.22702461,12.5880984 C5.33458613,16.2763311 8.59901566,18.8649664 11.1418345,18.8649664 C11.7030872,18.8649664 12.2070694,18.7389709 12.6423266,18.4869799 C13.1234004,18.2120805 13.5701119,17.7424609 13.8793736,17.2270246 C13.9022819,17.1812081 13.9366443,17.1353915 13.9824609,17.0437584 C14.2802685,16.4825056 13.6961074,15.1194631 12.3559732,14.0771365 C11.5885459,13.4929754 10.7523937,13.1378971 10.110962,13.1378971 L10.110962,13.1378971 Z M11.8978076,9.34657718 C11.8634452,9.34657718 11.8290828,9.34657718 11.7947204,9.33512304 C11.4854586,9.27785235 11.2792841,8.98004474 11.3365548,8.670783 C11.3823714,8.45315436 11.3251007,8.22407159 11.1991051,8.04080537 C11.0731096,7.85753915 10.8783893,7.73154362 10.6607606,7.69718121 C10.3514989,7.63991051 10.1453244,7.34210291 10.2025951,7.03284116 C10.2598658,6.72357942 10.5576734,6.51740492 10.8669351,6.57467562 C11.3938255,6.66630872 11.8405369,6.96411633 12.1497987,7.38791946 C12.4476063,7.82317673 12.5621477,8.35006711 12.4705145,8.86550336 C12.4132438,9.16331096 12.1727069,9.34657718 11.8978076,9.34657718 L11.8978076,9.34657718 Z" id="Shape"></path>
                <path d="M13.833557,9.31221477 C13.7991946,9.31221477 13.7648322,9.31221477 13.7304698,9.30076063 C13.4212081,9.24348993 13.2150336,8.94568233 13.2723043,8.63642058 C13.501387,7.37646532 12.6537808,6.16232662 11.3823714,5.92178971 C11.0731096,5.86451902 10.8669351,5.56671141 10.9242058,5.25744966 C10.9814765,4.94818792 11.2792841,4.74201342 11.5885459,4.79928412 C13.4899329,5.14290828 14.7498881,6.95266219 14.3948098,8.83114094 C14.3489933,9.11749441 14.1084564,9.31221477 13.833557,9.31221477 L13.833557,9.31221477 Z" id="Shape"></path>
                <path d="M16.05566,9.93073826 C16.0212975,9.93073826 15.9869351,9.93073826 15.9525727,9.91928412 C15.643311,9.86201342 15.4371365,9.56420582 15.4944072,9.25494407 C15.7234899,7.99498881 15.4485906,6.71212528 14.7155257,5.65834452 C13.9824609,4.60456376 12.8714094,3.89440716 11.5885459,3.65387025 C11.2792841,3.59659955 11.0731096,3.29879195 11.1303803,2.9895302 C11.187651,2.68026846 11.4854586,2.47409396 11.7947204,2.53136465 C13.3753915,2.81771812 14.7498881,3.6996868 15.6547651,5.00545861 C16.5710962,6.31123043 16.9147204,7.89190157 16.6169128,9.44966443 C16.5710962,9.7360179 16.3191051,9.93073826 16.05566,9.93073826 L16.05566,9.93073826 Z" id="Shape"></path>
            </g>
        </g>
    </g>
</svg>