<?xml version="1.0" encoding="UTF-8"?>
<svg width="24px" height="24px" viewBox="0 0 24 24" version="1.1" xmlns="http://www.w3.org/2000/svg" xmlns:xlink="http://www.w3.org/1999/xlink">
    <!-- Generator: Sketch 45.2 (43514) - http://www.bohemiancoding.com/sketch -->
    <title>添加 (14) copy 2</title>
    <desc>Created with Sketch.</desc>
    <defs></defs>
    <g id="Page-1" stroke="none" stroke-width="1" fill="none" fill-rule="evenodd">
        <g id="Artboard-2" transform="translate(-610.000000, -1091.000000)" fill-rule="nonzero" fill="#CCCCCC">
            <g id="添加-(14)-copy-2" transform="translate(610.000000, 1091.000000)">
                <path d="M12,24 C5.38359375,24 0,18.6164062 0,12 C0,5.38359375 5.38359375,0 12,0 C18.6164062,0 24,5.38359375 24,12 C24,18.6164062 18.6164062,24 12,24 Z M12,1.99921875 C6.48515625,1.99921875 1.99921875,6.48515625 1.99921875,12 C1.99921875,17.5148437 6.48515625,22.0007813 12,22.0007813 C17.5148437,22.0007813 22.0007812,17.5148437 22.0007812,12 C22.0007812,6.48515625 17.5148437,1.99921875 12,1.99921875 Z" id="Shape"></path>
                <path d="M16.0007812,13.0007812 L7.99921875,13.0007812 C7.44609375,13.0007812 6.9984375,12.553125 6.9984375,12 C6.9984375,11.446875 7.44609375,10.9992187 7.99921875,10.9992187 L15.9984375,10.9992187 C16.5515625,10.9992187 16.9992188,11.446875 16.9992188,12 C16.9992188,12.553125 16.5515625,13.0007812 16.0007812,13.0007812 Z" id="Shape"></path>
                <path d="M12,16.9992187 C11.446875,16.9992187 10.9992187,16.5515625 10.9992187,15.9984375 L10.9992187,7.99921875 C10.9992187,7.44609375 11.446875,6.9984375 12,6.9984375 C12.553125,6.9984375 13.0007812,7.44609375 13.0007812,7.99921875 L13.0007812,15.9984375 C13.0007812,16.5515625 12.553125,16.9992188 12,16.9992188 L12,16.9992187 Z" id="Shape"></path>
            </g>
        </g>
    </g>
</svg>