<?xml version="1.0" encoding="UTF-8"?>
<svg width="103px" height="91px" viewBox="0 0 103 91" version="1.1" xmlns="http://www.w3.org/2000/svg" xmlns:xlink="http://www.w3.org/1999/xlink">
    <!-- Generator: Sketch 45.2 (43514) - http://www.bohemiancoding.com/sketch -->
    <title>Group 9</title>
    <desc>Created with Sketch.</desc>
    <defs></defs>
    <g id="Page-1" stroke="none" stroke-width="1" fill="none" fill-rule="evenodd">
        <g id="Artboard-2" transform="translate(-2259.000000, -1349.000000)" fill-rule="nonzero">
            <g id="Group-9" transform="translate(2259.000000, 1349.000000)">
                <path d="M29.5112524,76.3365949 C28.464775,76.3365949 27.508317,75.7627202 27.0244618,74.8400196 L1.481409,26.9721135 C0.75,25.5993151 1.26761252,23.8889432 2.64041096,23.1575342 L33.1908023,6.85273973 L50.0807241,11.9838552 L71.0665362,51.3449119 C71.7979452,52.7177104 71.2803327,54.4280822 69.9075342,55.1594912 L30.8277886,76.010274 C30.4227006,76.2240705 29.9726027,76.3365949 29.5112524,76.3365949 Z" id="Shape" fill="#F2F2F2"></path>
                <path d="M33.3511412,8.64578345 L49.2258369,13.4809919 L69.3924593,51.2716775 C69.9574724,52.3256443 69.5554438,53.651252 68.501477,54.2162652 L30.7651196,74.3502906 C30.4500161,74.5241408 30.1023158,74.6110659 29.7437497,74.6110659 C28.9396926,74.6110659 28.2008293,74.1655747 27.820532,73.4593083 L3.15553592,27.2368884 C2.88389499,26.7262035 2.82956681,26.1394591 2.99255136,25.5744459 C3.16640155,25.0202985 3.53583321,24.5639417 4.04651815,24.2923008 L33.3511412,8.64578345 L33.3511412,8.64578345 Z M33.1345401,6.26761252 L2.37035225,22.6736791 C0.727495108,23.5513699 0.0973581213,25.5993151 0.975048924,27.2421722 L26.5181018,75.1100783 C27.1257339,76.2465753 28.2959883,76.8992172 29.5,76.8992172 C30.0401174,76.8992172 30.5802348,76.7754403 31.0865949,76.5053816 L70.1663405,55.6545988 C71.8091977,54.776908 72.4393346,52.7289628 71.5616438,51.0861057 L50.4633072,11.5337573 L33.1345401,6.26761252 Z" id="Shape" fill="#D7D7D7"></path>
                <path d="M39.9197652,17.5313112 C39.6947162,17.5313112 39.4584149,17.4975538 39.2333659,17.4300391 C38.6369863,17.25 38.1418787,16.8449119 37.8493151,16.2935421 L33.0332681,7.25782779 L34.0234834,6.72896282 L38.8507828,15.7646771 C39.008317,16.0459883 39.2558708,16.2597847 39.5709393,16.3498043 C39.8747554,16.4398239 40.2123288,16.417319 40.4936399,16.2597847 L49.5293542,11.4324853 L50.0582192,12.4227006 L41.0225049,17.25 C40.6736791,17.4412916 40.3023483,17.5313112 39.9197652,17.5313112 L39.9197652,17.5313112 Z" id="Shape" fill="#C0EDFF"></path>
                <path d="M9.77446184,32.5758317 C9.77446181,33.2954317 10.1583638,33.9603696 10.7815557,34.3201696 C11.4047477,34.6799697 12.1725518,34.6799697 12.7957437,34.3201696 C13.4189356,33.9603696 13.8028376,33.2954317 13.8028376,32.5758317 C13.8028376,31.8562317 13.4189356,31.1912938 12.7957437,30.8314938 C12.1725518,30.4716938 11.4047477,30.4716938 10.7815558,30.8314938 C10.1583639,31.1912938 9.77446182,31.8562317 9.77446184,32.5758317 Z" id="Shape" fill="#E9E9E9"></path>
                <path d="M17.0097847,28.2548924 C17.0097847,29.3672976 17.9115674,30.2690802 19.0239726,30.2690802 C20.1363778,30.2690802 21.0381605,29.3672976 21.0381605,28.2548924 C21.0381605,27.1424871 20.1363778,26.2407045 19.0239726,26.2407045 C17.9115674,26.2407045 17.0097847,27.1424871 17.0097847,28.2548924 Z" id="Shape" fill="#E9E9E9"></path>
                <path d="M24.2338552,23.9452055 C24.2338552,25.0576107 25.1356378,25.9593933 26.2480431,25.9593933 C27.3604483,25.9593933 28.2622309,25.0576107 28.2622309,23.9452055 C28.2622309,22.8328002 27.3604483,21.9310176 26.2480431,21.9310176 C25.1356378,21.9310176 24.2338552,22.8328002 24.2338552,23.9452055 L24.2338552,23.9452055 Z" id="Shape" fill="#E9E9E9"></path>
                <path d="M44.7245597,26.4657534 L16.3458904,41.7015656 C15.4119374,42.2079256 14.241683,41.8478474 13.7465753,40.9138943 L13.7353229,40.8913894 C13.2289628,39.9574364 13.5890411,38.787182 14.5229941,38.2920744 L42.9016634,23.0562622 C43.8356164,22.5499022 45.0058708,22.9099804 45.5009785,23.8439335 L45.5122309,23.8664384 C46.0073386,24.7891389 45.6585127,25.9593933 44.7245597,26.4657534 L44.7245597,26.4657534 Z M51.4535225,36.5141879 L23.0748532,51.75 C22.1409002,52.2563601 20.9706458,51.8962818 20.4755382,50.9623288 L20.4642857,50.9398239 C19.9579256,50.0058708 20.3180039,48.8356164 21.2519569,48.3405088 L49.6306262,33.1046967 C50.5645793,32.5983366 51.7348337,32.9584149 52.2299413,33.8923679 L52.2411937,33.9148728 C52.7363014,34.8488258 52.3874755,36.0190802 51.4535225,36.5141879 L51.4535225,36.5141879 Z M44.8483366,50.3772016 L27.3620352,59.7617417 C26.4280822,60.2681018 25.2578278,59.9080235 24.7627202,58.9740705 L24.7514677,58.9515656 C24.2451076,58.0176125 24.6051859,56.8473581 25.5391389,56.3522505 L43.0254403,46.9677104 C43.9593933,46.4613503 45.1296477,46.8214286 45.6247554,47.7553816 L45.6360078,47.7778865 C46.1423679,48.7118395 45.7822896,49.8820939 44.8483366,50.3772016 Z" id="Shape" fill="#E9E9E9"></path>
                <path d="M33.0220157,76.3365949 C30.9853229,76.3365949 29.3312133,74.6824853 29.3312133,72.6457926 L29.3312133,4.287182 C29.3312133,2.25048924 30.9853229,0.596379648 33.0220157,0.596379648 L76.7152642,0.596379648 L92.5249511,16.4060665 L92.5249511,72.6457926 C92.5249511,74.6824853 90.8708415,76.3365949 88.8341487,76.3365949 L33.0220157,76.3365949 Z" id="Shape" fill="#FFFFFF"></path>
                <path d="M76.1029798,2.06114367 L91.211995,17.1701589 L91.211995,71.8305352 C91.211995,73.5215151 89.8394464,74.8830833 88.1594468,74.8830833 L33.6967175,74.8830833 C32.0057376,74.8830833 30.6441694,73.5105347 30.6441694,71.8305352 L30.6441694,5.11369181 C30.6441694,3.4227119 32.016718,2.06114367 33.6967175,2.06114367 L76.1029798,2.06114367 L76.1029798,2.06114367 Z M76.9403131,0.0337573386 L33.0220157,0.0337573386 C30.6702544,0.0337573386 28.768591,1.93542074 28.768591,4.287182 L28.768591,72.6457926 C28.768591,74.9975538 30.6702544,76.8992172 33.0220157,76.8992172 L88.8341487,76.8992172 C91.18591,76.8992172 93.0875734,74.9975538 93.0875734,72.6457926 L93.0875734,16.1697652 L76.9403131,0.0337573386 L76.9403131,0.0337573386 Z" id="Shape" fill="#D7D7D7"></path>
                <path d="M80,17 C78.4584149,17 75.8747554,14.5528376 75.8747554,13 L75.8747554,0.093444227 L78,2 L78,13 C78,13.9227006 79.2681018,14.6521526 80.1908023,14.6521526 L91,15 L92.9065558,17 L80,17 Z" id="Shape" fill="#D7D7D7"></path>
                <path d="M52.702544,21.334638 C52.5337573,21.334638 52.3649706,21.2783757 52.2074364,21.1771037 L46.5699609,17.1262231 C46.1873777,16.8561644 46.1086106,16.3272994 46.3786693,15.9447162 C46.648728,15.5621331 47.177593,15.4833659 47.5601761,15.7534247 L53.1976517,19.8043053 C53.5802348,20.074364 53.659002,20.603229 53.3889432,20.9858121 C53.2201566,21.2108611 52.9613503,21.334638 52.702544,21.334638 L52.702544,21.334638 Z" id="Shape" fill="#E9E9E9"></path>
                <path d="M45.5684932,25.9818982 C45.287182,25.9818982 45.0171233,25.8468689 44.859589,25.5993151 C44.6007828,25.2054795 44.7133072,24.6878669 45.1071429,24.4290607 L52.1624266,19.8380626 C52.5562622,19.5792564 53.0738748,19.6917808 53.332681,20.0856164 C53.5914873,20.4794521 53.4789628,20.9970646 53.0851272,21.2558708 L46.0298434,25.8468689 C45.8835616,25.9368885 45.7260274,25.9818982 45.5684932,25.9818982 L45.5684932,25.9818982 Z" id="Shape" fill="#E9E9E9"></path>
                <path d="M69.1423679,21.334638 C68.8835616,21.334638 68.6247554,21.2108611 68.4559687,20.9858121 C68.18591,20.603229 68.2759295,20.0856164 68.6472603,19.8043053 L74.2847358,15.7534247 C74.667319,15.4833659 75.1849315,15.5733855 75.4662427,15.9447162 C75.7363014,16.3272994 75.6462818,16.8449119 75.2749511,17.1262231 L69.6374755,21.1771037 C69.4799413,21.2783757 69.3111546,21.334638 69.1423679,21.334638 L69.1423679,21.334638 Z" id="Shape" fill="#E9E9E9"></path>
                <path d="M76.2764188,25.9818982 C76.1188845,25.9818982 75.9613503,25.9368885 75.8150685,25.8468689 L68.7597847,21.2558708 C68.3659491,20.9970646 68.2534247,20.4794521 68.5122309,20.0856164 C68.7710372,19.6917808 69.2886497,19.5792564 69.6824853,19.8380626 L76.7377691,24.4290607 C77.1316047,24.6878669 77.2441292,25.2054795 76.9853229,25.5993151 C76.8165362,25.8468689 76.5464775,25.9818982 76.2764188,25.9818982 Z" id="Shape" fill="#E9E9E9"></path>
                <path d="M60.9168297,25.9818982 C62.1996086,25.9818982 63.2798434,27.3997065 63.2798434,29.0875734 C63.2798434,30.7641879 62.1996086,32.1932485 60.9168297,32.1932485 C59.6340509,32.1932485 58.553816,30.7754403 58.553816,29.0875734 C58.5650685,27.3997065 59.6453033,25.9818982 60.9168297,25.9818982 L60.9168297,25.9818982 Z M60.9168297,24.2940313 C58.677593,24.2940313 56.8659491,26.4432485 56.8659491,29.0875734 C56.8659491,31.7318982 58.677593,33.8811155 60.9168297,33.8811155 C63.1560665,33.8811155 64.9677104,31.7318982 64.9677104,29.0875734 C64.9677104,26.4319961 63.1560665,24.2940313 60.9168297,24.2940313 Z" id="Shape" fill="#E9E9E9"></path>
                <path d="M39.6497065,42.342955 C39.6497065,43.4553602 40.5514891,44.3571429 41.6638943,44.3571429 C42.7762996,44.3571429 43.6780822,43.4553602 43.6780822,42.342955 C43.6780822,41.2305497 42.7762996,40.3287671 41.6638943,40.3287671 C40.5514891,40.3287671 39.6497065,41.2305497 39.6497065,42.342955 Z" id="Shape" fill="#E9E9E9"></path>
                <path d="M80.2710372,44.2783757 L48.0552838,44.2783757 C46.9975538,44.2783757 46.1311155,43.4231898 46.1311155,42.3542074 L46.1311155,42.3317025 C46.1311155,41.2739726 46.9863014,40.4075342 48.0552838,40.4075342 L80.2710372,40.4075342 C81.3287671,40.4075342 82.1952055,41.2627202 82.1952055,42.3317025 L82.1952055,42.3542074 C82.1952055,43.4231898 81.3287671,44.2783757 80.2710372,44.2783757 Z" id="Shape" fill="#E9E9E9"></path>
                <path d="M39.6497065,55.2382583 C39.6497065,56.3506636 40.5514891,57.2524462 41.6638943,57.2524462 C42.7762996,57.2524462 43.6780822,56.3506636 43.6780822,55.2382583 C43.6780822,54.1258531 42.7762996,53.2240705 41.6638943,53.2240705 C40.5514891,53.2240705 39.6497065,54.1258531 39.6497065,55.2382583 Z" id="Shape" fill="#E9E9E9"></path>
                <path d="M80.2710372,57.1736791 L48.0552838,57.1736791 C46.9975538,57.1736791 46.1311155,56.3184932 46.1311155,55.2495108 L46.1311155,55.2270059 C46.1311155,54.1692759 46.9863014,53.3028376 48.0552838,53.3028376 L80.2710372,53.3028376 C81.3287671,53.3028376 82.1952055,54.1580235 82.1952055,55.2270059 L82.1952055,55.2495108 C82.1952055,56.3072407 81.3287671,57.1736791 80.2710372,57.1736791 Z" id="Shape" fill="#E9E9E9"></path>
                <path d="M39.6497065,68.1223092 C39.6497065,69.2347144 40.5514891,70.1364971 41.6638943,70.1364971 C42.7762996,70.1364971 43.6780822,69.2347144 43.6780822,68.1223092 C43.6780822,67.009904 42.7762996,66.1081213 41.6638943,66.1081213 C40.5514891,66.1081213 39.6497065,67.009904 39.6497065,68.1223092 L39.6497065,68.1223092 Z" id="Shape" fill="#E9E9E9"></path>
                <path d="M80.2710372,70.0577299 L48.0552838,70.0577299 C46.9975538,70.0577299 46.1311155,69.202544 46.1311155,68.1335616 L46.1311155,68.1110568 C46.1311155,67.0533268 46.9863014,66.1868885 48.0552838,66.1868885 L80.2710372,66.1868885 C81.3287671,66.1868885 82.1952055,67.0420744 82.1952055,68.1110568 L82.1952055,68.1335616 C82.1952055,69.1912916 81.3287671,70.0577299 80.2710372,70.0577299 Z" id="Shape" fill="#E9E9E9"></path>
                <path d="M93.8752446,3.72455969 L91.0733855,3.72455969 C90.758317,3.72455969 90.5107632,3.47700587 90.5107632,3.16193738 C90.5107632,2.84686888 90.758317,2.59931507 91.0733855,2.59931507 L93.8752446,2.59931507 C94.1903131,2.59931507 94.4378669,2.84686888 94.4378669,3.16193738 C94.4378669,3.47700587 94.1903131,3.72455969 93.8752446,3.72455969 Z" id="Shape" fill="#E9E9E9"></path>
                <path d="M92.4799413,5.13111546 C92.1648728,5.13111546 91.917319,4.88356164 91.917319,4.56849315 L91.917319,1.76663405 C91.917319,1.45156556 92.1648728,1.20401174 92.4799413,1.20401174 C92.7950098,1.20401174 93.0425636,1.45156556 93.0425636,1.76663405 L93.0425636,4.56849315 C93.0425636,4.8723092 92.7837573,5.13111546 92.4799413,5.13111546 Z M91.0171233,10.5097847 C90.7020548,10.5097847 90.454501,10.2622309 90.454501,9.94716243 L90.454501,9.80088063 C90.454501,9.48581213 90.7020548,9.23825832 91.0171233,9.23825832 C91.3321918,9.23825832 91.5797456,9.48581213 91.5797456,9.80088063 L91.5797456,9.94716243 C91.5797456,10.2622309 91.3321918,10.5097847 91.0171233,10.5097847 Z" id="Shape" fill="#E9E9E9"></path>
                <path d="M101.53816,9.38454012 L98.7363014,9.38454012 C98.4212329,9.38454012 98.1736791,9.1369863 98.1736791,8.82191781 C98.1736791,8.50684932 98.4212329,8.2592955 98.7363014,8.2592955 L101.53816,8.2592955 C101.853229,8.2592955 102.100783,8.50684932 102.100783,8.82191781 C102.100783,9.1369863 101.853229,9.38454012 101.53816,9.38454012 Z" id="Shape" fill="#E9E9E9"></path>
                <path d="M100.142857,10.7798434 C99.8277886,10.7798434 99.5802348,10.5322896 99.5802348,10.2172211 L99.5802348,7.41536204 C99.5802348,7.10029354 99.8277886,6.85273973 100.142857,6.85273973 C100.457926,6.85273973 100.705479,7.10029354 100.705479,7.41536204 L100.705479,10.2172211 C100.705479,10.5322896 100.457926,10.7798434 100.142857,10.7798434 Z" id="Shape" fill="#E9E9E9"></path>
                <path d="M10.6746575,69.0337573 L6.19618395,69.0337573 C5.88111546,69.0337573 5.63356164,68.7862035 5.63356164,68.471135 C5.63356164,68.1560665 5.88111546,67.9085127 6.19618395,67.9085127 L10.6746575,67.9085127 C10.989726,67.9085127 11.2372798,68.1560665 11.2372798,68.471135 C11.2372798,68.7862035 10.989726,69.0337573 10.6746575,69.0337573 Z" id="Shape" fill="#E9E9E9"></path>
                <path d="M8.43542074,71.2729941 C8.12035225,71.2729941 7.87279843,71.0254403 7.87279843,70.7103718 L7.87279843,66.2318982 C7.87279843,65.9168297 8.12035225,65.6692759 8.43542074,65.6692759 C8.75048924,65.6692759 8.99804305,65.9168297 8.99804305,66.2318982 L8.99804305,70.7103718 C8.99804305,71.0254403 8.75048924,71.2729941 8.43542074,71.2729941 Z M12.047456,53.0890411 L7.56898239,53.0890411 C7.25391389,53.0890411 7.00636008,52.8414873 7.00636008,52.5264188 C7.00636008,52.2113503 7.25391389,51.9637965 7.56898239,51.9637965 L12.047456,51.9637965 C12.3625245,51.9637965 12.6100783,52.2113503 12.6100783,52.5264188 C12.6100783,52.8414873 12.3625245,53.0890411 12.047456,53.0890411 Z" id="Shape" fill="#E9E9E9"></path>
                <path d="M9.80821918,55.3282779 C9.49315068,55.3282779 9.24559687,55.0807241 9.24559687,54.7656556 L9.24559687,50.287182 C9.24559687,49.9721135 9.49315068,49.7245597 9.80821918,49.7245597 C10.1232877,49.7245597 10.3708415,49.9721135 10.3708415,50.287182 L10.3708415,54.7656556 C10.3708415,55.0807241 10.1232877,55.3282779 9.80821918,55.3282779 Z" id="Shape" fill="#E9E9E9"></path>
                <path d="M13.7690802,70.462818 C13.5552838,70.462818 13.3527397,70.3390411 13.2514677,70.1252446 C13.1276908,69.8439335 13.2514677,69.5063601 13.5327789,69.3825832 L13.6340509,69.3375734 C13.915362,69.2137965 14.2529354,69.3375734 14.3767123,69.6188845 C14.5004892,69.9001957 14.3767123,70.2377691 14.0954012,70.361546 L13.9941292,70.4065558 C13.9266145,70.4515656 13.8478474,70.462818 13.7690802,70.462818 Z" id="Shape" fill="#E9E9E9"></path>
                <path d="M41.001383,86.1032283 C41.001383,88.5110077 50.7735648,90.4222949 62.7391632,90.422295 C74.7047616,90.4222951 84.4755605,88.5110078 84.4755606,86.1032283 C84.4755607,83.6954489 74.7033787,81.7827788 62.7377803,81.7827789 C50.7721818,81.782779 41,83.7659813 41,86.1032283 L41.001383,86.1032283 Z" id="Shape" fill="#F1F1F1"></path>
            </g>
        </g>
    </g>
</svg>