<?xml version="1.0" encoding="UTF-8"?>
<svg width="18px" height="18px" viewBox="0 0 18 18" version="1.1" xmlns="http://www.w3.org/2000/svg" xmlns:xlink="http://www.w3.org/1999/xlink">
    <!-- Generator: Sketch 45.2 (43514) - http://www.bohemiancoding.com/sketch -->
    <title>添加 (11)</title>
    <desc>Created with Sketch.</desc>
    <defs></defs>
    <g id="Page-1" stroke="none" stroke-width="1" fill="none" fill-rule="evenodd">
        <g id="Artboard" transform="translate(-80.000000, -50.000000)" fill-rule="nonzero" fill="#2DB3E5">
            <g id="添加-(11)" transform="translate(80.000000, 50.000000)">
                <path d="M16.7076834,10.2245394 L1.24738901,10.2245394 C0.561552999,10.2245394 0.000420822831,9.66338973 0.000420822831,8.97755372 C0.000420822831,8.29170018 0.561552999,7.730568 1.24740654,7.730568 L16.7076834,7.730568 C17.3935369,7.730568 17.9546516,8.29171771 17.9546516,8.97755372 C17.9546691,9.66340727 17.3935369,10.2245394 16.7076834,10.2245394 Z" id="Shape"></path>
                <path d="M7.73055047,16.7076834 L7.73055047,1.24738901 C7.73055047,0.561552999 8.29170018,0.000420822831 8.97755372,0.000420822831 C9.66340727,0.000420822831 10.2245394,0.561552999 10.2245394,1.24740654 L10.2245394,16.7076834 C10.2245394,17.3935369 9.66338973,17.9546516 8.97755372,17.9546516 C8.29171771,17.9546691 7.730568,17.3935369 7.730568,16.7076834 L7.73055047,16.7076834 Z" id="Shape"></path>
            </g>
        </g>
    </g>
</svg>